<svg width="506" height="463" viewBox="0 0 506 463" fill="none" xmlns="http://www.w3.org/2000/svg">
    <g clip-path="url(#clip0_1230_6640)">
        <path d="M423.881 11.64C384.481 -10.08 353.781 2.20003 316.091 19.18C286.951 32.31 255.361 31.56 224.451 36.76C182.661 43.79 141.921 65.28 118.821 100.82C97.1606 134.16 91.9306 173.54 75.4406 208.88C57.7306 246.82 30.8606 279.73 13.7506 318.04C3.76061 340.42 -2.95939 365.25 1.30061 389.41C7.07061 422.12 33.9706 448.67 65.7606 458.35C66.3506 458.54 66.9606 458.71 67.5706 458.87C73.6706 460.61 79.9406 461.73 86.2706 462.14C112.731 463.87 138.341 455.47 164.171 451.24C193.951 446.33 217.181 454.29 246.141 459.31C259.831 461.69 273.851 462.17 287.661 460.84C287.771 460.83 287.871 460.82 287.991 460.82C288.681 460.77 289.381 460.7 290.061 460.62C327.061 456.72 355.851 432.41 372.951 400.09C385.081 377.16 392.131 351.87 401.761 327.88C421.141 279.61 458.391 242.64 485.401 198.92C511.591 156.54 513.761 114.25 485.551 72.06C470.061 48.89 448.491 25.22 423.881 11.66H423.861L423.881 11.64Z" fill="white" />
    </g>
    <defs>
        <clipPath id="clip0_1230_6640">
            <rect width="505.9" height="462.37" fill="white" />
        </clipPath>
    </defs>
</svg>