<svg width="377" height="555" viewBox="0 0 377 555" fill="none" xmlns="http://www.w3.org/2000/svg">
    <g clip-path="url(#clip0_1230_6634)">
        <path d="M223.14 550.43C264.39 539.65 277.48 511.18 292.31 474.92C303.77 446.88 325.97 426.78 343.83 403.04C367.97 370.94 381.95 329.59 374.64 290.1C367.77 253.05 345.67 222.58 333.95 187.53C321.36 149.9 318.37 109.75 305.13 72.25C297.4 50.35 285.81 28.9 267.12 15.07C241.82 -3.65004 206 -4.34004 177.83 9.74996C177.3 9.99996 176.77 10.28 176.24 10.57C170.91 13.35 165.88 16.67 161.25 20.53C141.94 36.61 129.81 59.09 114.82 78.85C97.5599 101.66 76.3999 111.34 53.2199 126.79C42.2599 134.09 32.3099 142.9 23.6899 152.83C23.6199 152.91 23.5499 152.98 23.4799 153.07C23.0299 153.55 22.5999 154.06 22.1899 154.56C-0.700092 181.37 -4.63009 216.86 4.69991 250.24C11.3199 273.91 22.9799 295.9 32.0099 318.67C50.1799 364.49 48.7099 414.2 58.6699 461.88C68.3199 508.1 94.4199 538.58 141.33 549.17C167.1 554.99 197.36 557.18 223.13 550.45V550.43H223.14Z" fill="white" />
    </g>
    <defs>
        <clipPath id="clip0_1230_6634">
            <rect width="376.58" height="554.6" fill="white" />
        </clipPath>
    </defs>
</svg>