<svg width="262" height="398" viewBox="0 0 262 398" fill="none" xmlns="http://www.w3.org/2000/svg">
    <path d="M100.64 397.44C132.34 397.88 147.34 380.08 165.13 357.04C178.88 339.23 198.77 329.22 216.26 315.75C239.9 297.54 258.09 270.69 260.65 240.96C263.05 213.07 253.23 186.88 251.75 159.46C250.16 130.02 255.95 100.68 253.87 71.2C252.66 53.99 248.59 36.34 237.92 22.74C223.47 4.33005 197.94 -3.23996 174.97 1.27005C174.54 1.34005 174.11 1.44005 173.67 1.55005C169.3 2.49005 165.04 3.87005 160.96 5.72005C143.94 13.42 130.81 27.11 116.16 38.3C99.2803 51.22 82.2003 53.97 62.5403 60.45C53.2403 63.51 44.3703 67.85 36.2303 73.26C36.1603 73.31 36.1003 73.34 36.0303 73.39C35.6103 73.65 35.2103 73.93 34.8103 74.2C13.1003 88.88 3.27027 113.52 3.37027 139.27C3.44027 157.53 7.45027 175.58 9.43027 193.67C13.4003 230.08 2.52027 265.39 0.25027 301.5C-1.95973 336.51 10.7203 363.5 42.2603 380.36C59.5803 389.62 80.8403 397.18 100.64 397.45V397.44Z" fill="white" />
</svg>