<svg width="272" height="408" viewBox="0 0 272 408" fill="none" xmlns="http://www.w3.org/2000/svg">
    <g clip-path="url(#clip0_1230_6646)">
        <path d="M133.449 406.8C102.129 402.25 90.1294 382.33 76.1994 356.8C65.4294 337.06 47.3994 324.07 32.2694 308.03C11.7994 286.34 -1.92055 256.99 0.219446 227.25C2.22945 199.35 16.0194 175.05 21.7794 148.22C27.9594 119.42 26.8594 89.55 33.5294 60.8C37.4294 44.01 44.2094 27.23 56.8494 15.49C73.9694 -0.410037 100.339 -3.87004 122.279 4.19996C122.689 4.33996 123.099 4.49996 123.519 4.67996C127.679 6.28996 131.669 8.32996 135.399 10.79C150.969 21.06 161.769 36.64 174.459 49.98C189.079 65.38 205.479 70.78 223.859 80.26C232.549 84.74 240.609 90.42 247.789 97.03C247.849 97.09 247.899 97.13 247.969 97.19C248.339 97.51 248.699 97.85 249.049 98.18C268.139 116.08 273.969 141.94 269.829 167.33C266.899 185.34 260.109 202.52 255.329 220.06C245.709 255.36 250.889 291.91 247.479 327.91C244.169 362.8 227.429 387.44 193.699 399.12C175.169 405.54 153.019 409.65 133.459 406.81L133.449 406.8Z" fill="white" />
    </g>
    <defs>
        <clipPath id="clip0_1230_6646">
            <rect width="271.09" height="407.72" fill="white" />
        </clipPath>
    </defs>
</svg>