<svg width="366" height="550" viewBox="0 0 366 550" fill="none" xmlns="http://www.w3.org/2000/svg">
    <g clip-path="url(#clip0_1230_6636)">
        <path d="M179.771 548.02C137.581 541.89 121.411 515.05 102.641 480.67C88.1308 454.08 63.8308 436.57 43.4508 414.96C15.9008 385.75 -2.58919 346.2 0.300813 306.14C3.01081 268.56 21.5808 235.82 29.3408 199.68C37.6708 160.88 36.1808 120.65 45.1708 81.91C50.4208 59.28 59.5508 36.68 76.5908 20.87C99.6508 -0.550013 135.171 -5.22001 164.731 5.64999C165.281 5.83999 165.841 6.05999 166.401 6.28999C172.001 8.45999 177.381 11.2 182.401 14.52C203.381 28.35 217.931 49.34 235.021 67.32C254.711 88.07 276.811 95.34 301.571 108.12C313.271 114.16 324.141 121.81 333.811 130.72C333.891 130.79 333.961 130.85 334.051 130.93C334.551 131.36 335.031 131.82 335.501 132.27C361.221 156.38 369.071 191.21 363.501 225.42C359.551 249.68 350.411 272.82 343.961 296.46C330.991 344.02 337.981 393.26 333.381 441.75C328.921 488.75 306.371 521.95 260.931 537.69C235.971 546.33 206.131 551.88 179.781 548.05L179.771 548.02Z" fill="white" />
    </g>
    <defs>
        <clipPath id="clip0_1230_6636">
            <rect width="365.2" height="549.27" fill="white" />
        </clipPath>
    </defs>
</svg>