<svg width="456" height="644" viewBox="0 0 456 644" fill="none" xmlns="http://www.w3.org/2000/svg">
    <g clip-path="url(#clip0_1230_6638)">
        <path d="M120.15 625.71C75.9304 603.62 67.8904 568.19 59.7404 523.51C53.4404 488.96 33.0604 460.85 18.4904 429.65C-1.21958 387.47 -7.18958 337.21 10.5504 294.15C27.2004 253.76 59.5604 224.48 81.2404 187.52C104.52 147.84 117.52 103 141.51 63.6301C155.52 40.6301 173.8 19.0701 198.3 7.86005C231.48 -7.31995 272.28 0.450052 300.87 23.1701C301.41 23.5801 301.94 24.0201 302.47 24.4901C307.85 28.9201 312.77 33.8901 317.09 39.3701C335.15 62.2301 343.54 90.6301 355.81 116.63C369.94 146.64 391.63 162.68 414.23 185.75C424.92 196.65 434.1 209.03 441.51 222.35C441.57 222.46 441.63 222.56 441.69 222.67C442.08 223.33 442.45 224 442.8 224.67C462.35 260.57 458.31 301.77 439.74 337.4C426.57 362.67 408.09 384.82 392.39 408.5C360.82 456.14 350.6 512.89 327.9 564.59C305.9 614.71 269 643.06 213.25 643.85C182.63 644.29 147.77 639.53 120.15 625.74V625.72V625.71Z" fill="white" />
    </g>
    <defs>
        <clipPath id="clip0_1230_6638">
            <rect width="455.7" height="643.86" fill="white" />
        </clipPath>
    </defs>
</svg>