<svg width="751" height="385" viewBox="0 0 751 385" fill="none" xmlns="http://www.w3.org/2000/svg">
    <path d="M176.23 0.39563C266.34 -6.40437 368.69 76.7456 437.21 73.7256C505.73 70.7056 503.71 68.6156 569.21 61.5556C634.71 54.5056 673 93.7956 751 71.6356V366.616C738.02 364.466 724.25 362.826 710.28 362.156C646.8 359.136 586.53 377.136 524.87 383.566C470.6 389.226 351.55 367.346 308.23 351.186C264.9 335.026 210.97 307.516 142.45 318.606C73.93 329.686 0 341.186 0 341.186V53.8356C105.13 35.5556 96.56 6.40563 176.23 0.39563Z" fill="white" />
</svg>