<svg width="462" height="377" viewBox="0 0 462 377" fill="none" xmlns="http://www.w3.org/2000/svg">
    <g clip-path="url(#clip0_1230_6644)">
        <path d="M407.55 16.5C377.32 -7.17004 349.78 -1.02004 315.72 8.13996C289.38 15.23 262.86 10.29 236.12 10.45C199.95 10.67 162.7 23.21 138.39 50C115.59 75.14 105.82 107.59 87.1005 135.12C67.0105 164.67 39.8705 188.72 20.2305 218.67C8.76047 236.16 -0.279527 256.17 0.000473189 277.1C0.400473 305.44 19.4405 331.48 44.9005 343.98C45.3705 344.22 45.8605 344.45 46.3605 344.67C51.2605 346.97 56.3905 348.77 61.6705 349.97C83.7305 355.04 106.45 351.46 128.78 351.41C154.54 351.33 173.02 361.21 196.74 369.39C207.95 373.26 219.69 375.58 231.51 376.34C231.61 376.34 231.69 376.36 231.79 376.36C232.38 376.42 232.98 376.45 233.56 376.47C265.26 378.23 292.83 361.68 311.65 336.78C325 319.12 334.39 298.78 345.77 279.88C368.69 241.86 405.11 215.8 433.83 182.65C461.68 150.52 469.28 115.19 451.27 75.8C441.38 54.17 426.44 31.29 407.56 16.5H407.54H407.55Z" fill="white" />
    </g>
    <defs>
        <clipPath id="clip0_1230_6644">
            <rect width="461.02" height="376.6" fill="white" />
        </clipPath>
    </defs>
</svg>