<svg width="1920" height="599" viewBox="0 0 1920 599" fill="none" xmlns="http://www.w3.org/2000/svg">
    <path d="M448.58 3.307C678.165 -22.4658 941.28 111.085 1116.7 104.055C1292.11 97.0245 1286.95 68.9083 1454.62 52.5091C1622.29 36.1099 1720.32 127.489 1920 75.9431V552.569C1886.76 547.56 1851.51 543.745 1815.76 542.201C1653.25 535.171 1498.95 577.025 1341.11 591.98C1202.19 605.145 897.425 600.777 786.505 563.205C675.585 525.634 537.515 508.176 362.1 533.949C186.69 559.722 0 563.205 0 563.205V104.327C250.49 62.4232 218.995 29.0798 448.58 3.307V3.307Z" fill="white" />
</svg>