<svg width="308" height="420" viewBox="0 0 308 420" fill="none" xmlns="http://www.w3.org/2000/svg">
    <g clip-path="url(#clip0_1230_6642)">
        <path d="M50.2502 396.5C23.7802 377.35 22.3402 353.39 21.8102 323.38C21.4102 300.18 11.1302 279.66 4.97023 257.75C-3.35977 228.13 -1.86977 194.72 14.3202 168.54C29.5102 143.99 53.7502 128.36 71.8502 106.58C91.2902 83.2 104.57 55.36 124.43 32.25C136.03 18.75 150.26 6.64997 167.44 1.96997C190.71 -4.37003 216.47 5.06997 232.68 22.95C232.99 23.28 233.29 23.62 233.59 23.98C236.62 27.45 239.3 31.22 241.53 35.25C250.86 52.09 253.28 71.51 258.5 89.78C264.5 110.86 276.92 123.65 289.18 141.11C294.98 149.36 299.64 158.42 303.04 167.9C303.07 167.98 303.09 168.05 303.13 168.13C303.31 168.6 303.48 169.08 303.64 169.55C312.54 195.05 305.49 221.49 289.56 242.73C278.26 257.8 263.84 270.26 251.06 284.02C225.36 311.7 212.62 347.61 192.27 378.89C172.55 409.22 145.45 423.74 109.01 418.28C89.0002 415.28 66.7702 408.45 50.2402 396.49L50.2502 396.5Z" fill="white" />
    </g>
    <defs>
        <clipPath id="clip0_1230_6642">
            <rect width="307.54" height="419.43" fill="white" />
        </clipPath>
    </defs>
</svg>