<svg width="222" height="239" viewBox="0 0 222 239" fill="none" xmlns="http://www.w3.org/2000/svg">
    <path d="M95.1444 183.187H1.59733C0.697079 183.187 -0.045232 183.947 0.00214954 184.849C0.949781 202.504 9.54164 217.863 22.1451 226.888C23.535 227.886 24.3563 229.501 24.3563 231.211V235.043C24.3563 237.022 25.9515 238.621 27.9257 238.621H68.8002C70.7744 238.621 72.3696 237.022 72.3696 235.043V231.211C72.3696 229.501 73.1751 227.87 74.5808 226.888C87.2001 217.863 95.7761 202.504 96.7237 184.849C96.7711 183.947 96.0446 183.187 95.1286 183.187H95.1444Z" fill="#1D1D1D" />
    <path d="M122.324 15.0265L122.299 14.9926C115.983 6.21546 105.662 0.5 94.0106 0.5C74.779 0.5 59.1913 16.0573 59.1913 35.2523C59.1913 37.5638 59.4167 39.8251 59.8507 42.0148C60.2899 44.2387 60.943 46.3916 61.7849 48.4402C63.357 56.4046 60.8785 61.2163 58.8496 63.6842C58.0211 64.3705 57.2396 65.105 56.497 65.8749L56.4952 65.8768C51.7603 70.8375 48.8516 77.5459 48.8516 84.9393C48.8516 98.9083 59.2403 110.455 72.7246 112.303C77.4061 113.477 79.8859 115.317 81.1952 117.045C82.4973 118.763 82.684 120.426 82.6641 121.35C82.6357 121.609 82.6066 121.876 82.5855 122.144C82.5213 122.866 82.4915 123.591 82.4915 124.318C82.4915 138.244 93.7981 149.532 107.751 149.532C115.668 149.532 122.734 145.896 127.366 140.205C127.371 140.2 127.378 140.194 127.385 140.188C127.406 140.169 127.435 140.143 127.472 140.112C127.488 140.098 127.505 140.084 127.523 140.069C127.646 139.965 127.832 139.815 128.075 139.639C128.561 139.285 129.272 138.827 130.168 138.409C131.959 137.573 134.469 136.908 137.392 137.556C139.998 138.179 142.72 138.509 145.517 138.509C152.219 138.509 158.481 136.618 163.794 133.339C164.729 132.896 166.04 132.453 167.486 132.495C168.928 132.536 170.534 133.059 172.072 134.61L172.076 134.614C177.21 139.675 184.27 142.804 192.058 142.804C207.768 142.804 220.504 130.094 220.504 114.412C220.504 107.977 218.358 102.044 214.744 97.2851C214.443 96.8772 211.985 93.2849 213.836 87.1593C215.958 81.6421 217.12 75.6533 217.12 69.3917C217.12 41.9964 194.87 19.7902 167.425 19.7902C161.093 19.7902 155.038 20.9727 149.472 23.1281C148.63 23.3318 147.829 23.531 147.063 23.7215C144.946 24.2475 143.094 24.7079 141.391 25.0173C139.073 25.4383 137.085 25.5681 135.17 25.2039C131.366 24.4802 127.698 21.7758 122.324 15.0265Z" fill="white" stroke="#FFF3DC" />
    <path d="M112.305 103.543V85.7355H105.417V83.9435H121.265V85.7355H114.377V103.543H112.305ZM132.869 103.711C131.395 103.711 130.023 103.469 128.753 102.983C127.503 102.479 126.411 101.779 125.477 100.883C124.563 99.9688 123.844 98.9141 123.321 97.7195C122.817 96.5061 122.565 95.1808 122.565 93.7435C122.565 92.3061 122.817 90.9901 123.321 89.7955C123.844 88.5821 124.563 87.5275 125.477 86.6315C126.411 85.7168 127.503 85.0168 128.753 84.5315C130.004 84.0275 131.376 83.7755 132.869 83.7755C134.344 83.7755 135.707 84.0275 136.957 84.5315C138.208 85.0168 139.291 85.7075 140.205 86.6035C141.139 87.4995 141.857 88.5541 142.361 89.7675C142.884 90.9808 143.145 92.3061 143.145 93.7435C143.145 95.1808 142.884 96.5061 142.361 97.7195C141.857 98.9328 141.139 99.9875 140.205 100.883C139.291 101.779 138.208 102.479 136.957 102.983C135.707 103.469 134.344 103.711 132.869 103.711ZM132.869 101.863C134.045 101.863 135.128 101.667 136.117 101.275C137.125 100.865 137.993 100.295 138.721 99.5675C139.468 98.8208 140.047 97.9621 140.457 96.9915C140.868 96.0021 141.073 94.9195 141.073 93.7435C141.073 92.5675 140.868 91.4941 140.457 90.5235C140.047 89.5341 139.468 88.6755 138.721 87.9475C137.993 87.2008 137.125 86.6315 136.117 86.2395C135.128 85.8288 134.045 85.6235 132.869 85.6235C131.693 85.6235 130.601 85.8288 129.593 86.2395C128.585 86.6315 127.708 87.2008 126.961 87.9475C126.233 88.6755 125.655 89.5341 125.225 90.5235C124.815 91.4941 124.609 92.5675 124.609 93.7435C124.609 94.9008 124.815 95.9741 125.225 96.9635C125.655 97.9528 126.233 98.8208 126.961 99.5675C127.708 100.295 128.585 100.865 129.593 101.275C130.601 101.667 131.693 101.863 132.869 101.863ZM147.79 103.543V83.9435H155.126C156.787 83.9435 158.215 84.2141 159.41 84.7555C160.604 85.2781 161.519 86.0435 162.154 87.0515C162.807 88.0408 163.134 89.2448 163.134 90.6635C163.134 92.0448 162.807 93.2395 162.154 94.2475C161.519 95.2368 160.604 96.0021 159.41 96.5435C158.215 97.0848 156.787 97.3555 155.126 97.3555H148.938L149.862 96.3755V103.543H147.79ZM149.862 96.5435L148.938 95.5355H155.07C157.03 95.5355 158.514 95.1155 159.522 94.2755C160.548 93.4168 161.062 92.2128 161.062 90.6635C161.062 89.0955 160.548 87.8821 159.522 87.0235C158.514 86.1648 157.03 85.7355 155.07 85.7355H148.938L149.862 84.7555V96.5435Z" fill="#1D1D1D" />
    <path d="M122.422 68.3355L134.758 55.9995L147.095 68.3355" stroke="#1D1D1D" stroke-width="2" stroke-linecap="round" stroke-linejoin="round" />
</svg>