<svg width="750" height="1001" viewBox="0 0 750 1001" fill="none" xmlns="http://www.w3.org/2000/svg">
    <path d="M0 0L1.41881e-10 892.531C28.8942 923.59 70.1282 943.019 115.905 943.019C133.381 943.019 150.194 940.183 165.912 934.954C168.608 934.056 171.553 934.985 173.252 937.262C202.103 975.944 248.216 1001 300.192 1001C358.223 1001 408.949 969.77 436.495 923.211C438.308 920.145 442.101 918.864 445.39 920.227C457.905 925.425 471.628 928.296 486.022 928.296C522.162 928.296 554.08 910.218 573.217 882.612C575.217 879.726 579.111 878.902 582.088 880.769C605.193 895.257 632.517 903.642 661.806 903.642C694.758 903.642 725.231 893.035 750 875.055V0H0Z" fill="#FFF3DC" />
</svg>