<svg width="1920" height="981" viewBox="0 0 1920 981" fill="none" xmlns="http://www.w3.org/2000/svg">
    <path d="M0 0V695.724C73.9692 777.409 179.528 828.507 296.717 828.507C341.456 828.507 384.496 821.05 424.736 807.297C431.635 804.935 439.175 807.38 443.525 813.368C517.385 915.101 635.433 981 768.492 981C917.05 981 1046.91 898.863 1117.43 776.413C1122.07 768.35 1131.78 764.981 1140.2 768.566C1172.24 782.236 1207.37 789.786 1244.22 789.786C1336.74 789.786 1418.45 742.241 1467.43 669.636C1472.55 662.046 1482.52 659.878 1490.14 664.788C1549.29 702.893 1619.24 724.945 1694.22 724.945C1778.58 724.945 1856.59 697.049 1920 649.761V0H0Z" fill="#FFF3DC" />
</svg>