<svg width="377" height="239" viewBox="0 0 377 239" fill="none" xmlns="http://www.w3.org/2000/svg">
    <path d="M306.041 64.1701C302.526 63.7209 299.515 61.3886 298.271 58.0588C285.584 24.1416 252.963 0 214.715 0C188.499 0 164.926 11.3429 148.605 29.4011C142.867 35.7509 133.602 37.5536 125.931 33.7809C114.198 28.0103 100.987 24.7983 87.0218 24.8726C38.632 25.1235 -0.832823 65.6569 0.0133584 114.188C0.71748 154.498 28.5272 188.177 65.9383 197.68C71.3891 199.064 76.2531 202.146 79.7984 206.526C95.8388 226.338 120.313 239 147.74 239C173.156 239 196.037 228.128 212.022 210.77C220.456 201.611 234.563 200.464 244.189 208.354C257.731 219.452 274.905 226.26 293.651 226.709C340.249 227.827 378.473 189.143 376.956 142.418C375.647 102.105 345.191 69.188 306.038 64.1732L306.041 64.1701Z" fill="#FFF3DC" />
</svg>