<svg width="610" height="227" viewBox="0 0 610 227" fill="none" xmlns="http://www.w3.org/2000/svg">
    <path d="M567.252 73.3788C558.111 45.8792 532.219 26.047 501.699 26.047C489.014 26.047 477.127 29.4718 466.91 35.4508C462.978 37.7549 458.023 37.3316 454.446 34.5032C437.984 21.4869 417.195 13.7185 394.596 13.7185C379.036 13.7185 364.34 17.4031 351.319 23.9449C348.012 25.6044 344.079 25.4505 340.93 23.5072C325.739 14.1274 307.855 8.71599 288.704 8.71599C276.212 8.71599 264.262 11.02 253.243 15.2241C248.922 16.874 244.064 16.4748 240.093 14.0985C225.152 5.14686 207.681 0 189.01 0C148.954 0 114.415 23.6707 98.5719 57.8132C97.026 61.1466 93.454 63.0851 89.834 62.4838C85.7147 61.796 81.4849 61.4496 77.1736 61.4641C36.1436 61.6084 0.236435 95.6306 0.00118248 136.728C-0.238871 178.476 36.1052 216.74 77.4376 211.906C94.8559 209.872 110.536 206.086 123.206 196.312C140.764 211.781 163.79 221.166 189.005 221.166C210.816 221.166 228.455 215.918 244.87 204.013C257.799 219.266 285.967 227.366 312.57 225.812C333.075 224.615 352.236 220.045 368.234 209.198C383.573 219.679 402.11 225.812 422.078 225.812C436.25 225.812 449.703 222.724 461.802 217.183C477.026 210.208 494.262 209.02 510.163 214.263C521.119 217.88 533.174 219.064 545.696 217.188C578.381 212.286 604.225 186.393 609.113 153.651C614.336 118.671 595.8 87.3331 567.243 73.3788H567.252Z" fill="#FFF3DC" />
</svg>