<svg width="219" height="186" viewBox="0 0 219 186" fill="none" xmlns="http://www.w3.org/2000/svg">
    <path d="M17.3826 0C14.6911 2.44898 12.2175 5.13278 10.0355 8.08833C-2.42989 24.9427 -2.89244 48.7984 6.4859 67.5615C6.65349 67.9138 6.83783 68.266 7.03224 68.6183C8.88243 72.1676 9.96342 75.5087 12.5275 78.585C24.8485 99.0313 45.9343 106.485 64.9576 112.065C77.4852 118.11 74.1118 135.116 84.3985 150.555C89.2586 157.858 95.1209 164.484 101.731 170.227C101.788 170.274 101.831 170.321 101.888 170.365C102.213 170.66 102.545 170.949 102.88 171.227C120.732 186.471 144.359 189.084 166.578 182.865C182.335 178.453 196.975 170.687 212.129 164.675C214.405 163.773 216.694 162.944 219 162.179V0H17.3826Z" fill="currentColor" />
</svg>