<svg width="109" height="137" viewBox="0 0 109 137" fill="none" xmlns="http://www.w3.org/2000/svg">
    <path d="M33.3696 88.5789C32.8971 88.743 32.4672 88.7748 32.1143 88.6451L32.1149 88.6416C31.6985 88.4859 31.4464 88.2325 31.2997 87.9256C31.1474 87.6069 31.0939 87.1973 31.1467 86.7261C31.2048 86.2174 31.3318 85.7198 31.469 85.1824C31.4745 85.1608 31.48 85.1391 31.4856 85.1173C31.626 84.5669 31.7739 83.9749 31.8279 83.3539C31.8477 83.133 31.8539 82.8846 31.8596 82.6574C31.8627 82.533 31.8656 82.415 31.8706 82.3112C31.886 81.9853 31.9206 81.7029 32.0112 81.4467L32.0399 81.3658V81.3523C32.2005 80.9655 32.5258 80.6263 32.9192 80.4343C33.3321 80.2327 33.7794 80.2102 34.1676 80.4128C34.3689 80.5189 34.5446 80.6848 34.7352 80.9089C34.8151 81.0028 34.8915 81.0994 34.974 81.2037C34.9907 81.2248 35.0076 81.2461 35.0249 81.2679C35.124 81.3928 35.2321 81.5271 35.3492 81.6555C35.5712 81.9025 35.8306 82.0816 36.063 82.2273C36.1518 82.283 36.2325 82.3316 36.3082 82.3772C36.4489 82.4619 36.5725 82.5363 36.6992 82.6268L36.6992 82.6269L36.7038 82.63C37.0233 82.853 37.1836 83.1105 37.2343 83.4862C37.3306 84.2089 37.0092 85.0022 36.5722 85.7309C36.0805 86.5341 35.4218 87.2935 34.6799 87.85L34.6799 87.8499L34.6767 87.8524C34.3051 88.1357 33.8418 88.4149 33.3696 88.5789Z" fill="#FFF3DC" stroke="#FFF3DC"/>
    <path d="M37.8862 73.29L37.9179 73.3428C37.9863 73.4569 38.0672 73.5585 38.1583 73.6426L38.1656 73.6494L38.1727 73.6565C38.391 73.8748 38.6514 74.0554 38.9497 74.2363C39.0554 74.3004 39.1778 74.3711 39.3057 74.445C39.5037 74.5594 39.7148 74.6814 39.8975 74.7982M37.8862 73.29L39.6291 75.22M37.8862 73.29L37.8498 73.2536M37.8862 73.29L37.8498 73.2536M39.8975 74.7982C39.8978 74.7984 39.8982 74.7986 39.8985 74.7988L39.6291 75.22M39.8975 74.7982C39.8973 74.798 39.897 74.7979 39.8968 74.7977L39.6291 75.22M39.8975 74.7982C40.5244 75.1957 40.9158 75.7168 41.2728 76.1922C41.3716 76.3237 41.4678 76.4518 41.5656 76.5727M39.6291 75.22C40.1717 75.5639 40.4923 75.9895 40.8409 76.4522C40.9486 76.5951 41.0588 76.7414 41.1791 76.89M41.5656 76.5727L41.5633 76.57L41.1791 76.89M41.5656 76.5727C41.5663 76.5736 41.567 76.5745 41.5678 76.5754L41.1791 76.89M41.5656 76.5727L41.1791 76.89M37.8498 73.2536C37.6283 72.8923 37.5241 72.4453 37.5484 72.0078L37.5491 71.9939V71.9801V71.9799V71.9798V71.9797V71.9796V71.9795V71.9793V71.9792V71.9791V71.979V71.9789V71.9787V71.9786V71.9785V71.9784V71.9783V71.9781V71.978V71.9779V71.9778V71.9777V71.9775V71.9774V71.9773V71.9772V71.9771V71.9769V71.9768V71.9767V71.9766V71.9764V71.9763V71.9762V71.9761V71.9759V71.9758V71.9757V71.9756V71.9754V71.9753V71.9752V71.9751V71.9749V71.9748V71.9747V71.9746V71.9744V71.9743V71.9742V71.974V71.9739V71.9738V71.9737V71.9735V71.9734V71.9733V71.9731V71.973V71.9729V71.9728V71.9726V71.9725V71.9724V71.9722V71.9721V71.972V71.9718V71.9717V71.9716V71.9714V71.9713V71.9712V71.971V71.9709V71.9708V71.9706V71.9705V71.9704V71.9702V71.9701V71.97V71.9698V71.9697V71.9696V71.9694V71.9693V71.9692V71.969V71.9689V71.9688V71.9686V71.9685V71.9684V71.9682V71.9681V71.9679V71.9678V71.9677V71.9675V71.9674V71.9673V71.9671V71.967V71.9668V71.9667V71.9666V71.9664V71.9663V71.9662V71.966V71.9659V71.9657V71.9656V71.9655V71.9653V71.9652V71.965V71.9649V71.9648V71.9646V71.9645V71.9643V71.9642V71.964V71.9639V71.9638V71.9636V71.9635V71.9633V71.9632V71.963V71.9629V71.9628V71.9626V71.9625V71.9623V71.9622V71.962V71.9619V71.9618V71.9616V71.9615V71.9613V71.9612V71.961V71.9609V71.9607V71.9606V71.9604V71.9603V71.9601V71.96V71.9599V71.9597V71.9596V71.9594V71.9593V71.9591V71.959V71.9588V71.9587V71.9585V71.9584V71.9582V71.9581V71.9579V71.9578V71.9576V71.9575V71.9573V71.9572V71.957V71.9569V71.9567V71.9566V71.9564V71.9563V71.9561V71.956V71.9558V71.9557V71.9555V71.9554V71.9552V71.9551V71.9549V71.9548V71.9546V71.9545V71.9543V71.9542V71.954V71.9539V71.9537V71.9536V71.9534V71.9532V71.9531V71.9529V71.9528V71.9526V71.9525V71.9523V71.9522V71.952V71.9519V71.9517V71.9516V71.9514V71.9512V71.9511V71.9509V71.9508V71.9506V71.9505V71.9503V71.9501V71.95V71.9498V71.9497V71.9495V71.9494V71.9492V71.9491V71.9489V71.9487V71.9486V71.9484V71.9483V71.9481V71.9479V71.9478V71.9476V71.9475V71.9473V71.9472V71.947V71.9468V71.9467V71.9465V71.9464V71.9462V71.946V71.9459V71.9457V71.9456V71.9454V71.9452V71.9451V71.9449V71.9448V71.9446V71.9444V71.9443V71.9441V71.944V71.9438V71.9436V71.9435V71.9433V71.9432V71.943V71.9428V71.9427V71.9425V71.9423V71.9422V71.942V71.9419V71.9417V71.9415V71.9414V71.9412V71.941V71.9409V71.9407V71.9406V71.9404V71.9402V71.9401V71.9399V71.9397V71.9396V71.9394V71.9392V71.9391V71.9389V71.9388V71.9386V71.9384V71.9383V71.9381V71.9379V71.9378V71.9376V71.9374V71.9373V71.9371V71.9369V71.9368V71.9366V71.9364V71.9363V71.9361V71.9359V71.9358V71.9356V71.9354V71.9353V71.9351V71.9349V71.9348V71.9346V71.9344V71.9343V71.9341V71.9339V71.9338V71.9336V71.9334V71.9333V71.9331V71.9329V71.9328V71.9326V71.9324V71.9323V71.9321V71.9319V71.9318V71.9316V71.9314V71.9313V71.9311V71.9309V71.9308C37.5843 71.6592 37.6644 71.4124 37.794 71.2037C38.0788 70.7449 38.5656 70.4074 39.1449 70.1457L39.145 70.1459L39.1555 70.1408C39.3161 70.0637 39.5055 70.029 39.7481 70.01H39.7481H39.7483H39.7485H39.7487H39.7488H39.749H39.7492H39.7494H39.7495H39.7497H39.7499H39.7501H39.7502H39.7504H39.7506H39.7508H39.7509H39.7511H39.7513H39.7515H39.7516H39.7518H39.752H39.7522H39.7523H39.7525H39.7527H39.7529H39.753H39.7532H39.7534H39.7536H39.7538H39.7539H39.7541H39.7543H39.7545H39.7546H39.7548H39.755H39.7552H39.7553H39.7555H39.7557H39.7559H39.756H39.7562H39.7564H39.7566H39.7567H39.7569H39.7571H39.7573H39.7574H39.7576H39.7578H39.758H39.7581H39.7583H39.7585H39.7587H39.7588H39.759H39.7592H39.7594H39.7596H39.7597H39.7599H39.7601H39.7603H39.7604H39.7606H39.7608H39.761H39.7611H39.7613H39.7615H39.7617H39.7618H39.762H39.7622H39.7624H39.7625H39.7627H39.7629H39.7631H39.7632H39.7634H39.7636H39.7638H39.7639H39.7641H39.7643H39.7645H39.7646H39.7648H39.765H39.7652H39.7654H39.7655H39.7657H39.7659H39.7661H39.7662H39.7664H39.7666H39.7668H39.7669H39.7671H39.7673H39.7675H39.7676H39.7678H39.768H39.7682H39.7683H39.7685H39.7687H39.7689H39.769H39.7692H39.7694H39.7696H39.7697H39.7699H39.7701H39.7703H39.7704H39.7706H39.7708H39.771H39.7712H39.7713H39.7715H39.7717H39.7719H39.772H39.7722H39.7724H39.7726H39.7727H39.7729H39.7731H39.7733H39.7734H39.7736H39.7738H39.774H39.7741H39.7743H39.7745H39.7747H39.7748H39.775H39.7752H39.7754H39.7755H39.7757H39.7759H39.7761H39.7763H39.7764H39.7766H39.7768H39.777H39.7771H39.7773H39.7775H39.7777H39.7778H39.778H39.7782H39.7784H39.7785H39.7787H39.7789H39.7791H39.7792H39.7794H39.7796H39.7798H39.7799H39.7801H39.7803H39.7805H39.7806H39.7808H39.781H39.7812H39.7813H39.7815H39.7817H39.7819H39.7821H39.7822H39.7824H39.7826H39.7828H39.7829H39.7831H39.7833H39.7835H39.7836H39.7838H39.784H39.7842H39.7843H39.7845H39.7847H39.7849H39.785H39.7852H39.7854H39.7856H39.7857H39.7859H39.7861H39.7863H39.7864H39.7866H39.7868H39.787H39.7871H39.7873H39.7875H39.7877H39.7879H39.788H39.7882H39.7884H39.7886H39.7887H39.7889H39.7891H39.7893H39.7894H39.7896H39.7898H39.79H39.7901H39.7903H39.7905H39.7907H39.7908H39.791H39.7912H39.7914H39.7915H39.7917H39.7919H39.7921H39.7922H39.7924H39.7926H39.7928H39.7929H39.7931H39.7933H39.7935H39.7937H39.7938H39.794H39.7942H39.7944H39.7945H39.7947H39.7949H39.7951H39.7952H39.7954H39.7956H39.7958H39.7959H39.7961H39.7963H39.7965H39.7966H39.7968H39.797H39.7972H39.7973H39.7975H39.7977H39.7979H39.798H39.7982H39.7984H39.7986H39.7988H39.7989H39.7991H39.7993H39.7995H39.7996H39.7998H39.8H39.8002H39.8003H39.8005H39.8007H39.8009H39.801H39.8012H39.8014H39.8016H39.8017H39.8019H39.8021H39.8023H39.8024H39.8026H39.8028H39.803H39.8031H39.8033H39.8035H39.8037H39.8038H39.804H39.8042H39.8044H39.8046H39.8047H39.8049H39.8051H39.8053H39.8054H39.8056H39.8058H39.806H39.8061H39.8063H39.8065H39.8067H39.8068H39.807H39.8072H39.8074H39.8075H39.8077H39.8079H39.8081H39.8082H39.8084H39.8086H39.8088H39.8089H39.8091H39.8093H39.8095H39.8096H39.8098H39.81H39.8102H39.8104H39.8105H39.8107H39.8109H39.8111H39.8112H39.8114H39.8116H39.8118H39.8119H39.8121H39.8123H39.8125H39.8126H39.8128H39.813H39.8132H39.8133H39.8135H39.8137H39.8139H39.814H39.8142H39.8144H39.8146H39.8147H39.8149H39.8151H39.8153H39.8154H39.8156H39.8158H39.816H39.8162H39.8163H39.8165H39.8167H39.8169H39.817H39.8172H39.8174H39.8176H39.8177H39.8179H39.8181H39.8183H39.8184H39.8186H39.8188H39.819H39.8191V70.0102L39.8308 70.0099C40.0224 70.0055 40.2251 70.016 40.4534 70.0298C40.4765 70.0312 40.4999 70.0326 40.5236 70.034C40.7273 70.0465 40.9498 70.0601 41.1764 70.0625C41.6885 70.0679 42.2602 70.0174 42.8505 69.7577L42.8505 69.7577L42.8528 69.7567C43.3234 69.5468 43.6086 69.2555 43.8485 68.9503C43.9359 68.8391 44.0106 68.7367 44.0834 68.6369C44.22 68.4496 44.3502 68.2712 44.5459 68.0599L44.5548 68.0502L44.5632 68.0401L44.6045 67.9906C44.8551 67.7218 45.0849 67.5206 45.2949 67.4257L45.2949 67.4257L45.2975 67.4246C45.4798 67.341 45.6722 67.2942 45.869 67.2785L45.869 67.2785L45.8744 67.278C46.1702 67.2511 46.5488 67.3746 46.9569 67.5529L47.0255 67.5873L47.0255 67.5874L47.0377 67.5931C47.1705 67.6551 47.2932 67.7102 47.4085 67.7619C47.7169 67.9003 47.9715 68.0145 48.2221 68.1728L48.2221 68.1728L48.2252 68.1747C48.4433 68.3103 48.633 68.445 48.8347 68.5882C48.974 68.6872 49.119 68.7901 49.283 68.9002C49.6551 69.15 50.0714 69.3956 50.5587 69.5469C51.1113 69.7244 51.5323 69.8712 51.8692 70.0944C52.184 70.3029 52.4351 70.5863 52.6083 71.0682C52.7451 71.4533 52.8091 71.8945 52.8091 72.35V72.3502V72.3503V72.3504V72.3505V72.3506V72.3508V72.3509V72.351V72.3511V72.3512V72.3513V72.3515V72.3516V72.3517V72.3518V72.352V72.3521V72.3522V72.3523V72.3524V72.3526V72.3527V72.3528V72.3529V72.353V72.3532V72.3533V72.3534V72.3535V72.3537V72.3538V72.3539V72.354V72.3542V72.3543V72.3544V72.3545V72.3547V72.3548V72.3549V72.355V72.3552V72.3553V72.3554V72.3555V72.3557V72.3558V72.3559V72.3561V72.3562V72.3563V72.3564V72.3566V72.3567V72.3568V72.357V72.3571V72.3572V72.3573V72.3575V72.3576V72.3577V72.3579V72.358V72.3581V72.3583V72.3584V72.3585V72.3587V72.3588V72.3589V72.359V72.3592V72.3593V72.3594V72.3596V72.3597V72.3598V72.36V72.3601V72.3602V72.3604V72.3605V72.3607V72.3608V72.3609V72.3611V72.3612V72.3613V72.3615V72.3616V72.3617V72.3619V72.362V72.3621V72.3623V72.3624V72.3626V72.3627V72.3628V72.363V72.3631V72.3632V72.3634V72.3635V72.3637V72.3638V72.3639V72.3641V72.3642V72.3644V72.3645V72.3646V72.3648V72.3649V72.3651V72.3652V72.3653V72.3655V72.3656V72.3658V72.3659V72.3661V72.3662V72.3663V72.3665V72.3666V72.3668V72.3669V72.3671V72.3672V72.3673V72.3675V72.3676V72.3678V72.3679V72.3681V72.3682V72.3683V72.3685V72.3686V72.3688V72.3689V72.3691V72.3692V72.3694V72.3695V72.3697V72.3698V72.3699V72.3701V72.3702V72.3704V72.3705V72.3707V72.3708V72.371V72.3711V72.3713V72.3714V72.3716V72.3717V72.3719V72.372V72.3722V72.3723V72.3725V72.3726V72.3728V72.3729V72.3731V72.3732V72.3734V72.3735V72.3737V72.3738V72.374V72.3741V72.3743V72.3744V72.3746V72.3747V72.3749V72.375V72.3752V72.3753V72.3755V72.3756V72.3758V72.3759V72.3761V72.3762V72.3764V72.3765V72.3767V72.3769V72.377V72.3772V72.3773V72.3775V72.3776V72.3778V72.3779V72.3781V72.3782V72.3784V72.3785V72.3787V72.3789V72.379V72.3792V72.3793V72.3795V72.3796V72.3798V72.3799V72.3801V72.3803V72.3804V72.3806V72.3807V72.3809V72.381V72.3812V72.3814V72.3815V72.3817V72.3818V72.382V72.3821V72.3823V72.3825V72.3826V72.3828V72.3829V72.3831V72.3833V72.3834V72.3836V72.3837V72.3839V72.3841V72.3842V72.3844V72.3845V72.3847V72.3849V72.385V72.3852V72.3853V72.3855V72.3857V72.3858V72.386V72.3861V72.3863V72.3865V72.3866V72.3868V72.3869V72.3871V72.3873V72.3874V72.3876V72.3878V72.3879V72.3881V72.3882V72.3884V72.3886V72.3887V72.3889V72.3891V72.3892V72.3894V72.3895V72.3897V72.3899V72.39V72.3902V72.3904V72.3905V72.3907V72.3909V72.391V72.3912V72.3913V72.3915V72.3917V72.3918V72.392V72.3922V72.3923V72.3925V72.3927V72.3928V72.393V72.3932V72.3933V72.3935V72.3937V72.3938V72.394V72.3942V72.3943V72.3945V72.3947V72.3948V72.395V72.3952V72.3953V72.3955V72.3957V72.3958V72.396V72.3962V72.3963V72.3965V72.3967V72.3968V72.397V72.3972V72.3973V72.3975V72.3977V72.3978V72.398V72.3982V72.3983V72.3985V72.3987V72.3988V72.399V72.3992V72.3993V72.3995V72.3997V72.3999V72.4V72.4002V72.4004V72.4005V72.4007V72.4009V72.401V72.4012V72.4014V72.4015V72.4017V72.4019V72.4021V72.4022V72.4024V72.4026V72.4027V72.4029V72.4031V72.4032V72.4034V72.4036V72.4038V72.4039V72.4041V72.4043V72.4044V72.4046V72.4048V72.405V72.4051V72.4053V72.4055V72.4056V72.4058V72.406V72.4062V72.4063V72.4065V72.4067V72.4068V72.407V72.4072V72.4074V72.4075V72.4077V72.4079V72.408V72.4082V72.4084V72.4086V72.4087V72.4089V72.4091V72.4093V72.4094V72.4096V72.4098V72.4099V72.4101V72.4103V72.4105V72.4106V72.4108V72.411V72.4112V72.4113V72.4115V72.4117V72.4119V72.412V72.4122V72.4124V72.4125V72.4127V72.4129V72.4131V72.4132V72.4134V72.4136V72.4138V72.4139V72.4141V72.4143V72.4145V72.4146V72.4148V72.415V72.4152V72.4153V72.4155V72.4157V72.4158V72.416V72.4162V72.4164V72.4165V72.4167V72.4169V72.4171V72.4172V72.4174V72.4176V72.4178V72.4179V72.4181V72.4183V72.4185V72.4186V72.4188V72.419V72.4192V72.4193V72.4195V72.4197V72.4199V72.42V72.4202V72.4204V72.4206V72.4207V72.4209V72.4211V72.4213V72.4214V72.4216V72.4218V72.422V72.4221V72.4223V72.4225V72.4227V72.4228V72.423V72.4232V72.4234V72.4235V72.4237V72.4239V72.4241V72.4242V72.4244V72.4246V72.4248V72.425V72.4251V72.4253V72.4255V72.4257V72.4258V72.426V72.4262V72.4264V72.4265V72.4267V72.4269V72.4271V72.4272V72.4274V72.4276V72.4278V72.4279V72.4281V72.4283V72.4285V72.4286V72.4288V72.429V72.4292V72.4293V72.4295V72.4297V72.4299V72.43C52.8091 72.6979 52.7906 72.9633 52.7545 73.2068L52.7542 73.2088C52.6665 73.8185 52.4485 74.2764 52.1304 74.6236C51.8099 74.9735 51.3604 75.2408 50.7646 75.4214L37.8498 73.2536ZM41.6987 76.7325L41.6827 76.7165L41.3291 77.07L41.7133 76.75L41.6987 76.7325ZM42.3484 77.3122L42.3178 77.2904L42.2899 77.2764L42.2828 77.2728C42.2852 77.2741 42.2876 77.2753 42.2899 77.2765C42.3193 77.2919 42.3383 77.3061 42.3428 77.3095L42.3429 77.3096C42.3452 77.3113 42.3472 77.3129 42.349 77.3143C42.3529 77.3174 42.3553 77.3195 42.3559 77.32L42.3585 77.3224L42.3599 77.3237L42.3611 77.3249L42.3496 77.3134L42.3484 77.3122ZM42.0091 77.68L42.1492 77.54L42.2842 77.405L42.3627 77.3265L42.3626 77.3264L42.2844 77.4046L42.1492 77.5399L42.0091 77.68Z" fill="#FFF3DC" stroke="#FFF3DC"/>
    <path d="M100.973 14.6062L100.675 14.9949L101.058 15.3005C105.108 18.5391 107.55 22.8259 107.55 27.51V27.53C107.55 33.7491 103.24 39.2947 96.5601 42.5608L95.9311 42.8684L96.4262 43.3636C98.601 45.5383 99.8698 48.1967 99.8698 51.05C99.8698 54.5993 97.9256 57.8553 94.6999 60.2418C91.4743 62.6282 86.9936 64.12 82.0198 64.12C80.957 64.12 79.9189 64.0322 78.9024 63.9039L78.5704 63.862L78.4051 64.153C76.6783 67.1912 72.8511 69.36 68.3398 69.36C62.1237 69.36 57.2598 65.2817 57.2598 60.45C57.2598 56.8482 59.9273 53.6916 63.8865 52.2914L64.2477 52.1636L64.2183 51.7817C64.2124 51.7052 64.2062 51.6333 64.2003 51.5645C64.184 51.3765 64.1698 51.2116 64.1698 51.04C64.1698 49.3124 64.6344 47.6655 65.4766 46.1533L65.7313 45.696L65.2628 45.4625C62.1767 43.9243 60.1798 41.2141 60.1798 38.17C60.1798 37.256 60.3567 36.3796 60.6933 35.5475L60.7893 35.3101L60.6528 35.0934C59.1975 32.7844 58.3798 30.2158 58.3798 27.52C58.3798 18.5955 67.2803 11.0228 79.1959 9.67684L79.6077 9.63032L79.6384 9.21701C79.9935 4.43223 84.67 0.5 91.1398 0.5C97.6157 0.5 102.68 4.74821 102.68 9.78C102.68 11.5372 102.054 13.1925 100.973 14.6062Z" fill="#FFF3DC" stroke="#FFF3DC"/>
    <path d="M60.2394 101.33H1.00941C0.439408 101.33 -0.0305921 101.81 -0.000592126 102.38C0.599408 113.53 6.03941 123.23 14.0194 128.93C14.8994 129.56 15.4194 130.58 15.4194 131.66V134.08C15.4194 135.33 16.4294 136.34 17.6794 136.34H43.5594C44.8094 136.34 45.8194 135.33 45.8194 134.08V131.66C45.8194 130.58 46.3294 129.55 47.2194 128.93C55.2094 123.23 60.6394 113.53 61.2394 102.38C61.2694 101.81 60.8094 101.33 60.2294 101.33H60.2394Z" fill="#1D1D1D"/>
    </svg>
