<svg width="26" height="26" viewBox="0 0 26 26" fill="none" xmlns="http://www.w3.org/2000/svg">
    <circle cx="13" cy="13" r="13" fill="#1D9CEF" />
    <path d="M20.3912 8.81934C19.8875 9.04062 19.3548 9.18769 18.8094 9.256C19.3842 8.91263 19.8139 8.36884 20.0172 7.72767C19.4791 8.04913 18.8903 8.2755 18.2764 8.397C17.9 7.99214 17.4114 7.71066 16.874 7.58915C16.3367 7.46763 15.7756 7.51169 15.2634 7.71559C14.7513 7.9195 14.3119 8.27383 14.0023 8.73255C13.6928 9.19127 13.5273 9.73316 13.5275 10.2878C13.5253 10.4997 13.5466 10.7112 13.591 10.9184C11.3086 10.8063 9.28907 9.70447 7.93237 8.02609C7.57904 8.63439 7.46958 9.3556 7.62635 10.0424C7.78313 10.7293 8.1943 11.3299 8.77591 11.7217C8.34137 11.71 7.91599 11.5933 7.53565 11.3813V11.4116C7.53642 12.0501 7.75555 12.6689 8.15618 13.1637C8.5568 13.6586 9.11445 13.9993 9.73527 14.1286C9.50041 14.1909 9.25836 14.2215 9.01549 14.2196C8.84106 14.2227 8.6668 14.2069 8.49574 14.1724C8.85144 15.2674 9.86081 16.0725 11.061 16.0986C10.0892 16.864 8.89067 17.2792 7.65701 17.2779C7.43743 17.2794 7.21798 17.2668 7 17.24C8.25535 18.0547 9.71816 18.4857 11.2115 18.4808C16.2634 18.4808 19.0253 14.2659 19.0253 10.6124C19.0253 10.4901 19.0212 10.3721 19.0153 10.2549C19.5568 9.86463 20.0231 9.37814 20.3912 8.81934Z" fill="white" />
</svg>