<svg width="35" height="40" viewBox="0 0 35 40" fill="none" xmlns="http://www.w3.org/2000/svg">
    <g clip-path="url(#clip0_688_6935)">
        <path d="M24.6596 0.799805H5.44141V39.1998H34.205V10.3998L24.6596 0.799805Z" fill="white" stroke="#1D1D1D" stroke-width="2" stroke-miterlimit="10" />
        <path d="M29.3378 18.7842H0.796875V33.3602H29.3378V18.7842Z" fill="#50BEE8" stroke="#1D1D1D" stroke-width="2" stroke-miterlimit="10" />
        <path d="M8.35412 29.5357H5.58594V23.0557H8.35412C8.75185 23.0557 9.08594 23.1037 9.35639 23.1997C9.80185 23.3437 10.1678 23.6157 10.4541 24.0157C10.6768 24.3357 10.8359 24.6877 10.9155 25.0557C10.995 25.4237 11.0428 25.7917 11.0428 26.1277C11.0428 26.9917 10.8678 27.7117 10.5337 28.3197C10.0723 29.1197 9.34048 29.5357 8.37003 29.5357H8.35412ZM9.35639 24.7037C9.14957 24.3517 8.73594 24.1757 8.13139 24.1757H6.89048V28.3997H8.13139C8.76776 28.3997 9.21321 28.0797 9.45185 27.4557C9.59503 27.1037 9.65866 26.7037 9.65866 26.2237C9.65866 25.5677 9.56321 25.0557 9.35639 24.7037Z" fill="white" />
        <path d="M15.2429 29.7118C14.3202 29.7118 13.6202 29.4558 13.127 28.9598C12.4747 28.3358 12.1406 27.4558 12.1406 26.2878C12.1406 25.1198 12.4588 24.2078 13.127 23.6158C13.6202 23.1198 14.3202 22.8638 15.2429 22.8638C16.1656 22.8638 16.8656 23.1198 17.3588 23.6158C18.0111 24.2078 18.3293 25.1038 18.3293 26.2878C18.3293 27.4718 18.0111 28.3358 17.3588 28.9598C16.8656 29.4558 16.1656 29.7118 15.2429 29.7118ZM16.5156 27.9678C16.8338 27.5678 16.977 27.0078 16.977 26.2878C16.977 25.5678 16.8179 24.9918 16.4997 24.6078C16.1815 24.2078 15.7679 24.0158 15.227 24.0158C14.6861 24.0158 14.2724 24.2078 13.9543 24.6078C13.6361 25.0078 13.477 25.5678 13.477 26.2878C13.477 27.0078 13.6361 27.5838 13.9543 27.9678C14.2724 28.3518 14.702 28.5598 15.227 28.5598C15.752 28.5598 16.1815 28.3678 16.4997 27.9678H16.5156Z" fill="white" />
        <path d="M24.2619 29.0558C23.7846 29.5038 23.1641 29.7118 22.4164 29.7118C21.4937 29.7118 20.7619 29.4078 20.2369 28.8158C19.7119 28.2078 19.4414 27.3918 19.4414 26.3518C19.4414 25.2158 19.7437 24.3518 20.3482 23.7438C20.8732 23.2158 21.5414 22.9438 22.3528 22.9438C23.4346 22.9438 24.23 23.2958 24.7232 24.0158C24.9937 24.4158 25.1528 24.8158 25.1687 25.2318H23.8164C23.7369 24.9278 23.6096 24.6878 23.4823 24.5278C23.2437 24.2398 22.8778 24.1118 22.4005 24.1118C21.9232 24.1118 21.5255 24.3038 21.2391 24.7038C20.9528 25.1038 20.8096 25.6638 20.8096 26.3838C20.8096 27.1038 20.9528 27.6478 21.255 28.0158C21.5573 28.3838 21.9391 28.5598 22.4005 28.5598C22.8619 28.5598 23.2278 28.3998 23.4823 28.0958C23.6255 27.9358 23.7369 27.6798 23.8164 27.3438H25.1528C25.0414 28.0478 24.7391 28.6238 24.2619 29.0718V29.0558Z" fill="white" />
        <path d="M24.6602 0.799805V10.2558H34.2056" stroke="#1D1D1D" stroke-width="2" stroke-miterlimit="10" />
    </g>
    <defs>
        <clipPath id="clip0_688_6935">
            <rect width="35" height="40" fill="white" />
        </clipPath>
    </defs>
</svg>