<svg width="26" height="26" viewBox="0 0 26 26" fill="none" xmlns="http://www.w3.org/2000/svg">
    <circle cx="13" cy="13" r="13" fill="#06C755" />
    <g clip-path="url(#clip0_0_1)">
        <path d="M21 12.3878C21 8.86557 17.4113 6 13 6C8.58871 6 5 8.86557 5 12.3878C5 15.5455 7.84638 18.1898 11.6908 18.69C11.951 18.7453 12.3057 18.8589 12.3956 19.0781C12.4766 19.2773 12.4481 19.5886 12.4219 19.79C12.4219 19.79 12.3281 20.3456 12.3079 20.4636C12.2727 20.6628 12.1474 21.242 13.0007 20.8879C13.8548 20.5337 17.6077 18.2185 19.2859 16.318C20.4451 15.0667 21 13.7977 21 12.3878Z" fill="white" />
        <path d="M18.3377 14.4218H16.0905C16.0057 14.4218 15.9375 14.3547 15.9375 14.2713V14.2691V10.8399V10.8362C15.9375 10.7528 16.0057 10.6857 16.0905 10.6857H18.3377C18.4217 10.6857 18.4907 10.7535 18.4907 10.8362V11.3947C18.4907 11.4781 18.4225 11.5452 18.3377 11.5452H16.8103V12.1251H18.3377C18.4217 12.1251 18.4907 12.193 18.4907 12.2756V12.8341C18.4907 12.9175 18.4225 12.9846 18.3377 12.9846H16.8103V13.5645H18.3377C18.4217 13.5645 18.4907 13.6324 18.4907 13.715V14.2735C18.4907 14.3569 18.4225 14.424 18.3377 14.424V14.4218Z" fill="#06C755" />
        <path d="M10.024 14.4218C10.108 14.4218 10.177 14.3547 10.177 14.2713V13.7128C10.177 13.6302 10.108 13.5623 10.024 13.5623H8.49661V10.8354C8.49661 10.7528 8.42762 10.6849 8.34364 10.6849H7.77601C7.69128 10.6849 7.62305 10.7521 7.62305 10.8354V14.2684V14.2713C7.62305 14.3547 7.69128 14.4218 7.77601 14.4218H10.0233H10.024Z" fill="#06C755" />
        <path d="M11.3761 10.6857H10.8092C10.7247 10.6857 10.6562 10.7531 10.6562 10.8362V14.2713C10.6562 14.3545 10.7247 14.4218 10.8092 14.4218H11.3761C11.4606 14.4218 11.5291 14.3545 11.5291 14.2713V10.8362C11.5291 10.7531 11.4606 10.6857 11.3761 10.6857Z" fill="#06C755" />
        <path d="M15.2397 10.6857H14.6721C14.5874 10.6857 14.5191 10.7528 14.5191 10.8362V12.8762L12.922 10.7535C12.9182 10.7484 12.9137 10.7432 12.91 10.7381H12.9092C12.9062 10.7336 12.9032 10.7307 12.9002 10.7277L12.8972 10.7255C12.8972 10.7255 12.892 10.7211 12.889 10.7189C12.8875 10.7181 12.886 10.7167 12.8845 10.7159C12.8822 10.7137 12.8792 10.7122 12.8762 10.7108C12.8747 10.71 12.8732 10.7085 12.8717 10.7078C12.8687 10.7063 12.8665 10.7049 12.8635 10.7034C12.862 10.7026 12.8605 10.7019 12.859 10.7012C12.856 10.6997 12.853 10.6982 12.85 10.6975L12.8448 10.696C12.8448 10.696 12.8388 10.6938 12.8358 10.693C12.8343 10.693 12.832 10.6923 12.8305 10.6916C12.8275 10.6916 12.8245 10.6901 12.8215 10.6894C12.8193 10.6894 12.817 10.6894 12.8148 10.6886C12.8118 10.6886 12.8095 10.6879 12.8065 10.6879C12.8035 10.6879 12.8013 10.6879 12.7983 10.6879C12.7968 10.6879 12.7945 10.6879 12.793 10.6879H12.2291C12.1452 10.6879 12.0762 10.755 12.0762 10.8384V14.2735C12.0762 14.3562 12.1444 14.424 12.2291 14.424H12.7968C12.8815 14.424 12.9497 14.3569 12.9497 14.2735V12.2336L14.5491 14.3591C14.5604 14.3746 14.5739 14.3872 14.5889 14.3968L14.5904 14.3982C14.5904 14.3982 14.5964 14.4019 14.6001 14.4041C14.6016 14.4049 14.6031 14.4056 14.6046 14.4063C14.6069 14.4078 14.6099 14.4086 14.6121 14.41C14.6144 14.4115 14.6174 14.4122 14.6196 14.413C14.6211 14.413 14.6226 14.4145 14.6241 14.4145C14.6279 14.4159 14.6309 14.4167 14.6346 14.4174H14.6369C14.6496 14.4211 14.6631 14.4233 14.6766 14.4233H15.2405C15.3245 14.4233 15.3934 14.3562 15.3934 14.2728V10.8377C15.3934 10.755 15.3252 10.6871 15.2405 10.6871L15.2397 10.6857Z" fill="#06C755" />
    </g>
    <defs>
        <clipPath id="clip0_0_1">
            <rect width="16" height="15" fill="white" transform="translate(5 6)" />
        </clipPath>
    </defs>
</svg>