<svg width="23" height="25" viewBox="0 0 23 25" fill="none" xmlns="http://www.w3.org/2000/svg">
    <path d="M16.0274 1H4V24H22V6.75L16.0274 1Z" fill="white" stroke="black" stroke-miterlimit="10" />
    <path d="M19 12H1V21H19V12Z" fill="#F5523B" stroke="black" stroke-miterlimit="10" />
    <path d="M6.09713 16.9976H5.23841V18.4495H4.39844V14.4082H6.16088C6.56586 14.4082 6.8921 14.513 7.1321 14.7188C7.37209 14.9246 7.49583 15.2501 7.49583 15.6879C7.49583 16.1632 7.37584 16.5037 7.1321 16.6983C6.88835 16.8928 6.54712 16.9939 6.09713 16.9939V16.9976ZM6.49087 16.1557C6.59961 16.0584 6.65586 15.905 6.65586 15.6954C6.65586 15.4859 6.59961 15.3362 6.49087 15.2464C6.38212 15.1566 6.22463 15.1117 6.02588 15.1117H5.23841V16.3016H6.02588C6.22463 16.3016 6.38212 16.253 6.49462 16.1557H6.49087Z" fill="white" />
    <path d="M10.0992 18.4495H8.35547V14.4082H10.0992C10.3504 14.4082 10.5604 14.4419 10.7254 14.4943C11.0104 14.5878 11.2391 14.7599 11.4154 15.0069C11.5579 15.209 11.6516 15.426 11.7041 15.658C11.7566 15.89 11.7829 16.1145 11.7829 16.3278C11.7829 16.8666 11.6741 17.3194 11.4604 17.6936C11.1679 18.195 10.7141 18.4457 10.1029 18.4457L10.0992 18.4495ZM10.7291 15.441C10.5979 15.2202 10.3429 15.1117 9.95666 15.1117H9.17669V17.7497H9.95666C10.3542 17.7497 10.6354 17.5552 10.7929 17.1623C10.8791 16.9452 10.9204 16.6908 10.9204 16.3914C10.9204 15.9798 10.8566 15.6655 10.7291 15.4447V15.441Z" fill="white" />
    <path d="M15.5132 15.123H13.4845V16.051H15.2619V16.7545H13.4845V18.4496H12.6445V14.4158H15.5132V15.1267V15.123Z" fill="white" />
    <path d="M16 1V7H22" stroke="black" stroke-miterlimit="10" />
</svg>