<svg width="440" height="294" viewBox="0 0 440 294" fill="none" xmlns="http://www.w3.org/2000/svg">
    <path d="M436.425 119.788C427.88 87.5824 405.304 77.3649 376.557 65.7889C354.328 56.8412 338.389 39.5068 319.566 25.5684C294.117 6.72201 261.329 -4.19246 230.015 1.51874C200.638 6.88147 176.479 24.1332 148.685 33.2876C118.847 43.1154 87.0115 45.4542 57.2811 55.7899C39.9153 61.8259 22.9094 70.874 11.9479 85.4621C-2.89338 105.218 -3.44506 133.177 7.72635 155.172C7.92423 155.585 8.1461 155.999 8.37996 156.412C10.5867 160.57 13.2191 164.503 16.2773 168.112C29.0258 183.19 46.8472 192.658 62.516 204.358C80.6013 217.836 88.2768 234.355 100.528 252.451C106.314 261.009 113.3 268.776 121.173 275.509C121.239 275.562 121.293 275.615 121.359 275.674C121.743 276.022 122.145 276.359 122.541 276.684C143.804 294.55 171.945 297.615 198.408 290.327C217.177 285.159 234.608 276.058 252.664 269.006C288.996 254.819 328.411 255.971 366.213 248.193C402.857 240.657 427.029 220.281 435.424 183.657C440.035 163.541 441.774 139.91 436.437 119.794L436.425 119.788Z" fill="black"/>
    </svg>
