<svg width="421" height="398" viewBox="0 0 421 398" fill="none" xmlns="http://www.w3.org/2000/svg">
    <path d="M180.771 58.7067L176.683 15.6765H165.811L169.898 58.7067H180.771Z" fill="black" />
    <path d="M134.661 71.6838C131.153 71.2139 127.805 69.7942 124.957 67.5047C120.27 63.7356 117.592 58.1369 117.592 52.1182V9.55784H106.779V52.1282C106.779 61.4361 110.937 70.1142 118.192 75.9428C122.989 79.802 128.715 82.0614 134.671 82.5813V71.6838H134.661Z" fill="black" />
    <path d="M371.294 58.7067L367.207 15.6765H356.334L360.421 58.7067H371.294Z" fill="black" />
    <path d="M325.184 71.6838C321.677 71.2139 318.329 69.7942 315.481 67.5047C310.794 63.7356 308.116 58.1369 308.116 52.1182V9.55784H297.303V52.1282C297.303 61.4361 301.46 70.1142 308.715 75.9428C313.512 79.802 319.238 82.0614 325.194 82.5813V71.6838H325.184Z" fill="black" />
    <path d="M258.409 63.2457C255.131 70.3441 247.956 75.293 239.641 75.293C228.249 75.293 218.975 66.0151 218.975 54.6176V6.44854H208.162V54.6276C208.162 71.9937 222.283 86.1205 239.641 86.1205C254.012 86.1205 266.154 76.4327 269.911 63.2457H258.409Z" fill="black" />
    <path d="M22.8955 34.3822H33.7083V22.6249H49.6078V11.7973H33.7083V0.0399933H22.8955V11.7973H6.99609V22.6249H22.8955V34.3822Z" fill="black" />
    <path d="M58.701 42.2804H21.9054C9.82347 42.2804 0 52.1182 0 64.2055C0 76.2928 9.82347 86.1205 21.9054 86.1205C33.9874 86.1205 43.8109 76.2928 43.8109 64.2055C43.8109 60.1564 42.7016 56.3673 40.7829 53.108H58.701C64.8169 53.108 69.7936 58.0869 69.7936 64.2055C69.7936 70.3241 64.8169 75.303 58.701 75.303H53.8842V86.1205H58.701C70.7829 86.1205 80.6064 76.2928 80.6064 64.2055C80.6064 52.1182 70.7829 42.2904 58.701 42.2904V42.2804ZM32.9881 64.1955C32.9881 70.3141 28.0114 75.293 21.8954 75.293C15.7795 75.293 10.8028 70.3141 10.8028 64.1955C10.8028 58.0769 15.7795 53.098 21.8954 53.098C28.0114 53.098 32.9881 58.0769 32.9881 64.1955Z" fill="black" />
    <path d="M84.5235 16.3863L82.9646 0H72.0918L73.6508 16.3863H84.5235Z" fill="black" />
    <path d="M246.146 144.427V132.22L194.86 123.232L143.564 132.15V144.347L185.996 136.969L186.906 146.587L158.525 146.527V196.995C158.525 209.293 168.528 219.29 180.81 219.29H185.816V208.273H180.81C174.594 208.273 169.537 203.214 169.537 196.995V175.98H209.75V164.963H169.537V157.564L214.947 157.654C222.012 157.654 227.768 163.403 227.768 170.481C227.768 177.56 222.022 183.309 214.947 183.309H180.47V194.326H203.894L216.926 219.3H229.347L226.14 213.142L246.146 205.064V193.186L221.023 203.324L216.306 194.276C228.818 193.576 238.781 183.169 238.781 170.471C238.781 157.774 228.088 146.627 214.957 146.627L198.978 146.597L197.968 135.959L246.156 144.407L246.146 144.427Z" fill="#F4001E" />
    <path d="M54.4943 171.821V160.804H36.3464V138.779L54.4943 135.599V124.412L7.17578 132.71V143.897L25.3337 140.718V160.804H7.17578V171.821H25.3337V219.74H36.3464V171.821H54.4943Z" fill="#F4001E" />
    <path d="M95.1381 124.202C82.0667 124.202 71.4238 134.84 71.4238 147.917V195.626C71.4238 208.703 82.0568 219.35 95.1381 219.35C108.219 219.35 118.842 208.713 118.842 195.626V147.917C118.842 134.84 108.209 124.202 95.1381 124.202ZM107.83 195.636C107.83 202.644 102.133 208.343 95.1381 208.343C88.1427 208.343 82.4365 202.644 82.4365 195.636V147.927C82.4365 140.918 88.1327 135.229 95.1381 135.229C102.143 135.229 107.83 140.928 107.83 147.927V195.636Z" fill="#F4001E" />
    <path d="M45.8008 182.669L48.499 211.102H59.5616L56.8634 182.669H45.8008Z" fill="#F4001E" />
    <path d="M2.46875 211.102H13.5314L16.2396 182.669H5.17695L2.46875 211.102Z" fill="#F4001E" />
    <path d="M344.621 166.852H297.292C282.612 166.852 270.67 178.8 270.67 193.486C270.67 208.173 282.612 220.12 297.292 220.12C311.972 220.12 323.915 208.173 323.915 193.486C323.915 187.568 321.976 182.099 318.698 177.67H344.621C353.335 177.67 360.43 184.768 360.43 193.486C360.43 202.204 353.335 209.303 344.621 209.303H338.425V220.12H344.621C359.301 220.12 371.243 208.173 371.243 193.486C371.243 178.8 359.301 166.852 344.621 166.852ZM313.102 193.486C313.102 202.204 306.006 209.303 297.292 209.303C288.578 209.303 281.483 202.204 281.483 193.486C281.483 184.768 288.578 177.67 297.292 177.67C306.006 177.67 313.102 184.768 313.102 193.486Z" fill="black" />
    <path d="M17.7779 310.26V264.55H6.95508V310.26C6.95508 319.568 11.1123 328.246 18.3675 334.074C23.1643 337.934 28.8905 340.193 34.8465 340.713V329.815C31.3389 329.346 27.9911 327.926 25.143 325.636C20.4561 321.867 17.7779 316.269 17.7779 310.25V310.26Z" fill="black" />
    <path d="M84.4935 266.78V255.022H73.6707V266.78H57.7812V277.597H73.6707V289.355H84.4935V277.597H100.383V266.78H84.4935Z" fill="black" />
    <path d="M50.7756 319.178C50.7756 331.265 60.5991 341.093 72.6811 341.093C84.763 341.093 94.5865 331.265 94.5865 319.178C94.5865 315.129 93.4772 311.34 91.5585 308.08H100.373V297.263H72.6711C60.5891 297.263 50.7656 307.091 50.7656 319.178H50.7756ZM83.7737 319.178C83.7737 325.296 78.797 330.275 72.6811 330.275C66.5651 330.275 61.5884 325.296 61.5884 319.178C61.5884 313.059 66.5651 308.08 72.6811 308.08C78.797 308.08 83.7737 313.059 83.7737 319.178Z" fill="black" />
    <path d="M306.116 318.228C302.838 325.326 295.663 330.275 287.348 330.275C275.956 330.275 266.682 320.997 266.682 309.6V261.431H255.869V309.6C255.869 326.966 269.99 341.093 287.348 341.093C301.719 341.093 313.861 331.405 317.618 318.218H306.116V318.228Z" fill="black" />
    <path d="M170.377 277.597V266.78H152.089L153.188 255.212H142.316L141.216 266.78H127.775V277.597H140.187L137.489 306.091H148.352L151.06 277.597H170.377Z" fill="black" />
    <path d="M203.594 267.38H192.781V289.355H203.594V267.38Z" fill="black" />
    <path d="M169.887 319.178C169.887 331.265 179.71 341.093 191.792 341.093C203.874 341.093 213.698 331.265 213.698 319.178C213.698 315.129 212.589 311.34 210.67 308.08H219.484V297.263H191.782C179.7 297.263 169.877 307.091 169.877 319.178H169.887ZM202.885 319.178C202.885 325.296 197.908 330.275 191.792 330.275C185.676 330.275 180.7 325.296 180.7 319.178C180.7 313.059 185.676 308.08 191.792 308.08C197.908 308.08 202.885 313.059 202.885 319.178Z" fill="black" />
    <path d="M228.469 271.359L226.91 254.972H216.047L217.606 271.359H228.469Z" fill="black" />
    <path d="M353.186 340.713C362.232 340.713 369.565 333.377 369.565 324.327C369.565 315.277 362.232 307.94 353.186 307.94C344.14 307.94 336.807 315.277 336.807 324.327C336.807 333.377 344.14 340.713 353.186 340.713Z" fill="#F4001E" />
    <path d="M351.566 295.983L398.006 220.13L402.363 222.88L353.905 297.463L351.566 295.983Z" fill="#F4001E" />
    <path d="M357.203 300.832L417.243 235.237L421.001 238.766L359.212 302.722L357.203 300.832Z" fill="#F4001E" />
    <path d="M11.2123 382.763H5.32617V379.974H20.4061V382.763H14.5201V397.75H11.2222V382.763H11.2123Z" fill="black" />
    <path d="M39.9731 379.974V397.75H36.6753V390.132H27.4814V397.75H24.1836V379.974H27.4814V387.312H36.6753V379.974H39.9731Z" fill="black" />
    <path d="M59.2706 394.981V397.75H45.9395V379.974H58.9108V382.743H49.2373V387.362H57.8215V390.082H49.2373V394.981H59.2606H59.2706Z" fill="black" />
    <path d="M85.903 388.652H89.021V395.74C88.1116 396.47 87.0423 397.03 85.8231 397.42C84.6039 397.81 83.3547 398 82.0656 398C80.2568 398 78.6179 397.61 77.1688 396.82C75.7098 396.03 74.5706 394.941 73.7411 393.561C72.9117 392.171 72.502 390.602 72.502 388.862C72.502 387.122 72.9117 385.553 73.7411 384.163C74.5706 382.773 75.7198 381.684 77.1788 380.904C78.6379 380.114 80.2868 379.724 82.1156 379.724C83.6046 379.724 84.9637 379.974 86.1729 380.464C87.392 380.954 88.4114 381.674 89.2408 382.623L87.1622 384.653C85.8031 383.293 84.1742 382.623 82.2655 382.623C81.0163 382.623 79.897 382.883 78.9277 383.413C77.9583 383.943 77.1888 384.673 76.6392 385.623C76.0896 386.573 75.8098 387.652 75.8098 388.872C75.8098 390.092 76.0896 391.122 76.6392 392.071C77.1888 393.021 77.9483 393.761 78.9277 394.311C79.897 394.851 81.0063 395.121 82.2455 395.121C83.6345 395.121 84.8537 394.821 85.903 394.211V388.672V388.652Z" fill="black" />
    <path d="M96.3164 395.93C94.9474 394.551 94.2578 392.571 94.2578 390.002V379.974H97.5556V389.882C97.5556 393.371 99.0646 395.111 102.073 395.111C105.081 395.111 106.57 393.371 106.57 389.882V379.974H109.817V390.002C109.817 392.571 109.138 394.551 107.769 395.93C106.41 397.31 104.501 398 102.043 398C99.5843 398 97.6755 397.31 96.3065 395.93H96.3164Z" fill="black" />
    <path d="M115.684 379.974H118.981V397.75H115.684V379.974Z" fill="black" />
    <path d="M124.957 379.974H132.722C134.621 379.974 136.299 380.344 137.778 381.084C139.258 381.824 140.397 382.863 141.206 384.203C142.016 385.553 142.425 387.102 142.425 388.862C142.425 390.622 142.016 392.181 141.206 393.521C140.397 394.871 139.248 395.91 137.778 396.65C136.309 397.39 134.621 397.75 132.722 397.75H124.957V379.974ZM132.572 394.961C133.871 394.961 135.02 394.711 136.01 394.211C136.999 393.711 137.759 393.001 138.298 392.081C138.828 391.162 139.098 390.092 139.098 388.872C139.098 387.652 138.828 386.583 138.298 385.663C137.769 384.743 136.999 384.033 136.01 383.533C135.02 383.033 133.871 382.783 132.572 382.783H128.255V394.971H132.572V394.961Z" fill="black" />
    <path d="M160.542 394.981V397.75H147.211V379.974H160.182V382.743H150.509V387.362H159.093V390.082H150.509V394.981H160.532H160.542Z" fill="black" />
    <path d="M178.64 382.763H172.754V379.974H187.834V382.763H181.948V397.75H178.65V382.763H178.64Z" fill="black" />
    <path d="M194.591 396.82C193.132 396.03 191.992 394.941 191.163 393.541C190.334 392.141 189.924 390.582 189.924 388.852C189.924 387.122 190.334 385.563 191.163 384.163C191.992 382.763 193.132 381.674 194.591 380.884C196.05 380.094 197.679 379.704 199.487 379.704C201.296 379.704 202.935 380.094 204.384 380.884C205.843 381.674 206.982 382.763 207.812 384.143C208.641 385.533 209.051 387.102 209.051 388.842C209.051 390.582 208.631 392.151 207.812 393.541C206.982 394.931 205.843 396.02 204.384 396.8C202.925 397.59 201.296 397.98 199.487 397.98C197.679 397.98 196.04 397.59 194.591 396.8V396.82ZM202.685 394.301C203.635 393.771 204.374 393.021 204.924 392.061C205.463 391.102 205.733 390.032 205.733 388.852C205.733 387.672 205.463 386.593 204.924 385.643C204.384 384.683 203.635 383.943 202.685 383.403C201.736 382.873 200.667 382.604 199.487 382.604C198.308 382.604 197.239 382.873 196.29 383.403C195.34 383.933 194.601 384.683 194.051 385.643C193.511 386.603 193.242 387.672 193.242 388.852C193.242 390.032 193.511 391.112 194.051 392.061C194.591 393.021 195.34 393.761 196.29 394.301C197.239 394.831 198.308 395.101 199.487 395.101C200.667 395.101 201.736 394.831 202.685 394.301Z" fill="black" />
    <path d="M249.343 379.974L243.457 397.75H239.949L235.562 384.593L231.095 397.75H227.568L221.682 379.974H225.109L229.526 393.481L234.123 379.974H237.171L241.668 393.561L246.215 379.974H249.363H249.343Z" fill="black" />
    <path d="M263.855 393.631H254.971L253.222 397.75H249.824L257.819 379.974H261.067L269.091 397.75H265.644L263.865 393.631H263.855ZM262.766 391.042L259.418 383.273L256.09 391.042H262.766Z" fill="black" />
    <path d="M274.737 397.42C273.458 397.03 272.449 396.51 271.699 395.87L272.838 393.301C273.568 393.881 274.457 394.351 275.517 394.711C276.576 395.071 277.635 395.261 278.705 395.261C280.024 395.261 281.013 395.051 281.663 394.621C282.312 394.201 282.642 393.641 282.642 392.941C282.642 392.431 282.462 392.011 282.092 391.681C281.733 391.352 281.263 391.092 280.713 390.912C280.154 390.722 279.394 390.512 278.425 390.272C277.066 389.952 275.976 389.632 275.137 389.302C274.297 388.982 273.578 388.472 272.978 387.792C272.379 387.102 272.079 386.183 272.079 385.013C272.079 384.033 272.349 383.133 272.878 382.334C273.408 381.534 274.218 380.894 275.287 380.414C276.366 379.944 277.675 379.704 279.234 379.704C280.313 379.704 281.383 379.844 282.432 380.114C283.481 380.384 284.391 380.774 285.15 381.284L284.111 383.853C283.331 383.393 282.522 383.053 281.673 382.813C280.823 382.573 280.004 382.454 279.214 382.454C277.915 382.454 276.946 382.673 276.306 383.113C275.667 383.553 275.357 384.133 275.357 384.863C275.357 385.373 275.537 385.783 275.906 386.103C276.266 386.423 276.736 386.683 277.286 386.863C277.845 387.053 278.605 387.262 279.574 387.502C280.893 387.802 281.972 388.122 282.822 388.452C283.671 388.782 284.391 389.282 284.99 389.962C285.59 390.642 285.89 391.551 285.89 392.701C285.89 393.681 285.62 394.571 285.09 395.371C284.561 396.17 283.751 396.8 282.662 397.28C281.583 397.75 280.264 397.99 278.705 397.99C277.335 397.99 276.006 397.79 274.727 397.41L274.737 397.42Z" fill="black" />
    <path d="M306.375 379.974V397.75H303.078V390.132H293.884V397.75H290.586V379.974H293.884V387.312H303.078V379.974H306.375Z" fill="black" />
    <path d="M315.89 396.82C314.431 396.03 313.291 394.941 312.462 393.541C311.632 392.141 311.223 390.582 311.223 388.852C311.223 387.122 311.632 385.563 312.462 384.163C313.291 382.763 314.431 381.674 315.89 380.884C317.349 380.094 318.978 379.704 320.786 379.704C322.595 379.704 324.234 380.094 325.683 380.884C327.142 381.674 328.281 382.763 329.111 384.143C329.94 385.533 330.35 387.102 330.35 388.842C330.35 390.582 329.93 392.151 329.111 393.541C328.281 394.931 327.142 396.02 325.683 396.8C324.224 397.59 322.595 397.98 320.786 397.98C318.978 397.98 317.339 397.59 315.89 396.8V396.82ZM323.984 394.301C324.934 393.771 325.673 393.021 326.223 392.061C326.762 391.102 327.032 390.032 327.032 388.852C327.032 387.672 326.762 386.593 326.223 385.643C325.683 384.683 324.934 383.943 323.984 383.403C323.035 382.873 321.966 382.604 320.786 382.604C319.607 382.604 318.538 382.873 317.588 383.403C316.639 383.933 315.9 384.683 315.35 385.643C314.81 386.603 314.54 387.672 314.54 388.852C314.54 390.032 314.81 391.112 315.35 392.061C315.89 393.021 316.639 393.761 317.588 394.301C318.538 394.831 319.607 395.101 320.786 395.101C321.966 395.101 323.035 394.831 323.984 394.301Z" fill="black" />
    <path d="M341.272 390.302L338.454 393.201V397.75H335.156V379.974H338.454V389.092L347.238 379.974H350.946L343.481 387.922L351.405 397.75H347.548L341.282 390.312L341.272 390.302Z" fill="black" />
    <path d="M356.803 395.93C355.434 394.551 354.744 392.571 354.744 390.002V379.974H358.042V389.882C358.042 393.371 359.551 395.111 362.559 395.111C365.567 395.111 367.056 393.371 367.056 389.882V379.974H370.304V390.002C370.304 392.571 369.624 394.551 368.255 395.93C366.896 397.31 364.987 398 362.529 398C360.071 398 358.162 397.31 356.793 395.93H356.803Z" fill="black" />
</svg>