<svg width="440" height="52" viewBox="0 0 440 52" fill="none" xmlns="http://www.w3.org/2000/svg">
    <path d="M310.737 28.77C309.386 28.5875 308.097 28.0524 306.997 27.1767C305.192 25.7415 304.154 23.601 304.154 21.3084V3.85545H299.984V21.3023C299.984 24.8537 301.587 28.1679 304.381 30.3936C306.23 31.8653 308.441 32.7288 310.737 32.9295V28.77Z" fill="#1D1D1D" />
    <path d="M70.8797 22.6098L69.3076 6.19063H65.1133L66.6915 22.6098H70.8797Z" fill="#1D1D1D" />
    <path d="M238.739 24.0388L227.354 28.5875L228.784 32.1024L238.739 28.1254V24.0388Z" fill="#EF341B" />
    <path d="M19.1285 4.71291H2.70117V8.84201H19.1285V4.71291Z" fill="#1D1D1D" />
    <path d="M12.994 0.225006H8.82422V13.3299H12.994V0.225006Z" fill="#1D1D1D" />
    <path d="M171.759 12.9103H155.332V16.6989H171.759V12.9103Z" fill="#EF341B" />
    <path d="M226.1 14.3455H211.221V18.134H226.1V14.3455Z" fill="#EF341B" />
    <path d="M165.459 4.8102H161.633V15.9752H165.459V4.8102Z" fill="#EF341B" />
    <path d="M8.45008 33.0754C3.79517 33.0754 0 29.3233 0 24.7077C0 20.0921 3.78903 16.3401 8.45008 16.3401C13.1111 16.3401 16.9002 20.0921 16.9002 24.7077C16.9002 29.3233 13.1111 33.0754 8.45008 33.0754ZM8.45008 20.4753C6.09192 20.4753 4.17591 22.3726 4.17591 24.7077C4.17591 27.0429 6.09192 28.9402 8.45008 28.9402C10.8082 28.9402 12.7243 27.0429 12.7243 24.7077C12.7243 22.3726 10.8082 20.4753 8.45008 20.4753Z" fill="#1D1D1D" />
    <path d="M22.635 33.0754H20.7804V28.9463H22.635C24.9932 28.9463 26.9092 27.049 26.9092 24.7138C26.9092 22.3787 24.9932 20.4813 22.635 20.4813H8.44922V16.3522H22.6412C27.2961 16.3522 31.0913 20.1043 31.0913 24.7199C31.0913 29.3355 27.3022 33.0876 22.6412 33.0876" fill="#1D1D1D" />
    <path d="M336.007 4.71291H319.58V8.84201H336.007V4.71291Z" fill="#1D1D1D" />
    <path d="M329.879 0.225006H325.709V13.3299H329.879V0.225006Z" fill="#1D1D1D" />
    <path d="M361.314 4.71291H344.887V8.84201H361.314V4.71291Z" fill="#1D1D1D" />
    <path d="M325.329 33.0754C320.668 33.0754 316.879 29.3233 316.879 24.7077C316.879 20.0921 320.668 16.3401 325.329 16.3401C329.99 16.3401 333.779 20.0921 333.779 24.7077C333.779 29.3233 329.99 33.0754 325.329 33.0754ZM325.329 20.4753C322.971 20.4753 321.055 22.3726 321.055 24.7077C321.055 27.0429 322.971 28.9402 325.329 28.9402C327.687 28.9402 329.603 27.0429 329.603 24.7077C329.603 22.3726 327.687 20.4753 325.329 20.4753Z" fill="#1D1D1D" />
    <path d="M336.007 16.3462H325.328V20.4753H336.007V16.3462Z" fill="#1D1D1D" />
    <path d="M374.125 4.94398H369.955V13.3299H374.125V4.94398Z" fill="#1D1D1D" />
    <path d="M369.575 33.0754C364.914 33.0754 361.125 29.3233 361.125 24.7077C361.125 20.0921 364.914 16.3401 369.575 16.3401C374.236 16.3401 378.025 20.0921 378.025 24.7077C378.025 29.3233 374.236 33.0754 369.575 33.0754ZM369.575 20.4753C367.217 20.4753 365.301 22.3726 365.301 24.7077C365.301 27.0429 367.217 28.9402 369.575 28.9402C371.933 28.9402 373.849 27.0429 373.849 24.7077C373.849 22.3726 371.933 20.4753 369.575 20.4753Z" fill="#1D1D1D" />
    <path d="M380.254 16.3462H369.574V20.4753H380.254V16.3462Z" fill="#1D1D1D" />
    <path d="M260.785 33.0754C255.123 33.0754 250.518 28.5146 250.518 22.9077C250.518 17.3009 255.123 12.74 260.785 12.74C266.447 12.74 271.053 17.3009 271.053 22.9077C271.053 28.5146 266.447 33.0754 260.785 33.0754ZM260.785 16.8691C257.426 16.8691 254.687 19.5753 254.687 22.9077C254.687 26.2402 257.42 28.9463 260.785 28.9463C264.151 28.9463 266.883 26.2402 266.883 22.9077C266.883 19.5753 264.151 16.8691 260.785 16.8691Z" fill="#1D1D1D" />
    <path d="M279.036 33.0754H276.647V28.9463H279.036C282.396 28.9463 285.134 26.2402 285.134 22.9077C285.134 19.5753 282.402 16.8691 279.036 16.8691H260.785V12.74H279.036C284.698 12.74 289.304 17.3009 289.304 22.9077C289.304 28.5146 284.698 33.0754 279.036 33.0754Z" fill="#1D1D1D" />
    <path d="M53.1026 27.5659C51.7516 27.3835 50.4619 26.8483 49.3627 25.9726C47.5572 24.5375 46.5194 22.3969 46.5194 20.0982V3.85545H42.3496V20.1043C42.3496 23.6557 43.9524 26.9699 46.7466 29.1956C48.5951 30.6673 50.8058 31.5308 53.1026 31.7254V27.5659Z" fill="#1D1D1D" />
    <path d="M142.86 22.6098L141.282 6.19063H137.094L138.666 22.6098H142.86Z" fill="#1D1D1D" />
    <path d="M125.081 27.5659C123.73 27.3835 122.44 26.8483 121.341 25.9726C119.536 24.5375 118.498 22.3969 118.498 20.0982V3.85545H114.328V20.1043C114.328 23.6557 115.931 26.9699 118.725 29.1956C120.574 30.6673 122.784 31.5308 125.081 31.7254V27.5659Z" fill="#1D1D1D" />
    <path d="M100.266 24.3429C99.0067 27.0551 96.2371 28.9402 93.0253 28.9402C88.6345 28.9402 85.0604 25.401 85.0604 21.053V2.66963H80.8906V21.053C80.8906 27.6814 86.3377 33.0754 93.0315 33.0754C98.5707 33.0754 103.256 29.3781 104.706 24.349H100.272L100.266 24.3429Z" fill="#1D1D1D" />
    <path d="M414.473 24.3429C413.214 27.0551 410.444 28.9402 407.232 28.9402C402.842 28.9402 399.267 25.401 399.267 21.053V2.66963H395.098V21.053C395.098 27.6814 400.545 33.0754 407.239 33.0754C412.778 33.0754 417.463 29.3781 418.913 24.349H414.479L414.473 24.3429Z" fill="#1D1D1D" />
    <path d="M165.459 16.2306H161.633V33.1667H165.459V16.2306Z" fill="#EF341B" />
    <path d="M185.866 33.0329C181.327 33.0329 177.637 29.3781 177.637 24.8841V8.48321C177.637 3.98923 181.327 0.334457 185.866 0.334457C190.404 0.334457 194.095 3.98923 194.095 8.48321V24.878C194.095 29.372 190.404 33.0268 185.866 33.0268V33.0329ZM185.866 4.11694C183.434 4.11694 181.456 6.07507 181.456 8.48321V24.878C181.456 27.2862 183.434 29.2443 185.866 29.2443C188.298 29.2443 190.275 27.2862 190.275 24.878V8.48321C190.275 6.07507 188.298 4.11694 185.866 4.11694Z" fill="#EF341B" />
    <path d="M217.792 33.0146H216.054C211.786 33.0146 208.316 29.5788 208.316 25.3523V8.00888L227.906 8.05145C232.463 8.05145 236.178 11.7245 236.178 16.2428C236.178 20.7611 232.469 24.4341 227.906 24.4341H215.937V20.6455H227.906C230.357 20.6455 232.359 18.6692 232.359 16.2367C232.359 13.8042 230.363 11.8278 227.906 11.8278L212.142 11.7974V25.3463C212.142 27.4808 213.899 29.22 216.054 29.22H217.792V33.0085V33.0146Z" fill="#EF341B" />
    <path d="M352.821 19.7151L354.682 0.297974H350.494L348.627 19.7151H352.821Z" fill="#1D1D1D" />
    <path d="M27.8008 0.206757L28.4026 6.45819H32.5908L31.989 0.206757H27.8008Z" fill="#1D1D1D" />
    <path d="M173.516 30.193L172.583 20.4266H168.738L169.678 30.193H173.516Z" fill="#EF341B" />
    <path d="M157.535 30.193L158.475 20.4266H154.631L153.697 30.193H157.535Z" fill="#EF341B" />
    <path d="M232.905 33.0146L226.562 20.9678L223.172 22.7253L228.594 33.0146H232.905Z" fill="#EF341B" />
    <path d="M217.725 3.38112L218.394 10.3805H222.588L221.913 3.38112H217.725Z" fill="#EF341B" />
    <path d="M220.93 0L203.121 3.0649V7.25482L220.93 4.196L238.739 7.28523V3.08923L220.93 0Z" fill="#EF341B" />
    <path d="M378.922 0.206757L379.524 6.45819H383.712L383.116 0.206757H378.922Z" fill="#1D1D1D" />
    <path d="M155.332 3.2595V7.1028L171.759 4.25073V0.40744L155.332 3.2595Z" fill="#EF341B" />
    <path d="M440.001 26.6781C440.001 30.1322 437.176 32.9295 433.688 32.9295C430.2 32.9295 427.375 30.1322 427.375 26.6781C427.375 23.224 430.2 20.4266 433.688 20.4266C437.176 20.4266 440.001 23.224 440.001 26.6781Z" fill="#EF341B" />
    <path d="M2.57265 46.1925H0.392578V45.0857H5.96865V46.1925H3.78858V51.8845H2.57265V46.1925Z" fill="#1D1D1D" />
    <path d="M7.91016 45.0797H9.11994V47.9074H12.3993V45.0797H13.6029V51.8784H12.3993V49.0142H9.11994V51.8784H7.91016V45.0797Z" fill="#1D1D1D" />
    <path d="M16.1934 45.0797H21.2843V46.1499H17.397V47.9196H20.8421V48.9898H17.397V50.8142H21.3334V51.8845H16.1934V45.0857V45.0797Z" fill="#1D1D1D" />
    <path d="M26.8733 48.5033V48.4851C26.8733 46.5817 28.3472 44.9702 30.4167 44.9702C31.6142 44.9702 32.3511 45.2986 33.0574 45.8945L32.2897 46.8006C31.7616 46.3567 31.2396 46.0709 30.3676 46.0709C29.1025 46.0709 28.1384 47.1716 28.1384 48.4729V48.4912C28.1384 49.8898 29.0718 50.9176 30.472 50.9176C31.1168 50.9176 31.7063 50.7108 32.1301 50.4007V49.1297H30.3737V48.0898H33.2969V50.948C32.6214 51.5196 31.6511 52.0061 30.429 52.0061C28.2796 52.0061 26.8672 50.4919 26.8672 48.5094L26.8733 48.5033Z" fill="#1D1D1D" />
    <path d="M35.5879 48.9959V45.0797H36.7977V48.9473C36.7977 50.2122 37.4548 50.8932 38.5356 50.8932C39.6164 50.8932 40.2612 50.2547 40.2612 48.9959V45.0797H41.471V48.9351C41.471 50.9662 40.3104 51.9878 38.5172 51.9878C36.724 51.9878 35.594 50.9662 35.594 48.9959H35.5879Z" fill="#1D1D1D" />
    <path d="M44.0312 45.0797H45.2349V51.8784H44.0312V45.0797Z" fill="#1D1D1D" />
    <path d="M47.8574 45.0797H50.4182C52.5737 45.0797 54.066 46.5452 54.066 48.4608V48.479C54.066 50.3946 52.5737 51.8784 50.4182 51.8784H47.8574V45.0797ZM50.4182 50.7899C51.8614 50.7899 52.801 49.829 52.801 48.4973V48.479C52.801 47.1472 51.8614 46.1682 50.4182 46.1682H49.0672V50.7899H50.4182Z" fill="#1D1D1D" />
    <path d="M56.3008 45.0797H61.3917V46.1499H57.5044V47.9196H60.9496V48.9898H57.5044V50.8142H61.4408V51.8845H56.3008V45.0857V45.0797Z" fill="#1D1D1D" />
    <path d="M68.9691 46.1925H66.7891V45.0857H72.359V46.1925H70.1789V51.8845H68.963V46.1925H68.9691Z" fill="#1D1D1D" />
    <path d="M73.7969 48.5033V48.4851C73.7969 46.5695 75.2892 44.9702 77.3955 44.9702C79.5019 44.9702 80.9758 46.5513 80.9758 48.4669V48.4851C80.9758 50.4007 79.4835 52 77.3771 52C75.2707 52 73.7969 50.4189 73.7969 48.5033ZM79.7107 48.5033V48.4851C79.7107 47.1655 78.7404 46.0648 77.3771 46.0648C76.0138 46.0648 75.0619 47.1412 75.0619 48.4669V48.4851C75.0619 49.8047 76.0322 50.9054 77.3955 50.9054C78.7588 50.9054 79.7107 49.829 79.7107 48.5033Z" fill="#1D1D1D" />
    <path d="M86.3301 45.0796H87.632L89.2716 50.1209L90.9604 45.0614H91.9798L93.6686 50.1209L95.3083 45.0796H96.5733L94.1783 51.927H93.1405L91.4517 47.0378L89.7629 51.927H88.7251L86.3301 45.0796Z" fill="#1D1D1D" />
    <path d="M100.148 45.031H101.266L104.287 51.8784H103.01L102.316 50.2365H99.0675L98.3613 51.8784H97.127L100.148 45.031ZM101.874 49.1784L100.689 46.4601L99.5097 49.1784H101.874Z" fill="#1D1D1D" />
    <path d="M105.57 50.8932L106.295 50.0358C106.952 50.6013 107.609 50.9176 108.463 50.9176C109.206 50.9176 109.679 50.577 109.679 50.0601V50.0419C109.679 49.5554 109.402 49.2939 108.131 49.002C106.67 48.6493 105.847 48.2236 105.847 46.9709V46.9526C105.847 45.7851 106.829 44.9823 108.193 44.9823C109.194 44.9823 109.986 45.2864 110.686 45.8398L110.041 46.7459C109.421 46.2898 108.807 46.0465 108.174 46.0465C107.468 46.0465 107.056 46.4053 107.056 46.8553V46.8736C107.056 47.3966 107.37 47.6337 108.684 47.9439C110.139 48.2966 110.888 48.8074 110.888 49.9385V49.9567C110.888 51.2277 109.875 51.9878 108.438 51.9878C107.388 51.9878 106.399 51.6291 105.57 50.8993V50.8932Z" fill="#1D1D1D" />
    <path d="M113.1 45.0797H114.309V47.9074H117.589V45.0797H118.792V51.8784H117.589V49.0142H114.309V51.8784H113.1V45.0797Z" fill="#1D1D1D" />
    <path d="M121.039 48.5033V48.4851C121.039 46.5695 122.531 44.9702 124.638 44.9702C126.744 44.9702 128.218 46.5513 128.218 48.4669V48.4851C128.218 50.4007 126.726 52 124.619 52C122.513 52 121.039 50.4189 121.039 48.5033ZM126.953 48.5033V48.4851C126.953 47.1655 125.983 46.0648 124.619 46.0648C123.256 46.0648 122.304 47.1412 122.304 48.4669V48.4851C122.304 49.8047 123.274 50.9054 124.638 50.9054C126.001 50.9054 126.953 49.829 126.953 48.5033Z" fill="#1D1D1D" />
    <path d="M130.473 45.0797H131.682V48.4973L134.949 45.0797H136.429L133.574 48.0047L136.558 51.8784H135.097L132.751 48.8196L131.682 49.9081V51.8784H130.473V45.0797Z" fill="#1D1D1D" />
    <path d="M138.254 48.9959V45.0797H139.464V48.9473C139.464 50.2122 140.121 50.8932 141.202 50.8932C142.282 50.8932 142.927 50.2547 142.927 48.9959V45.0797H144.137V48.9351C144.137 50.9662 142.976 51.9878 141.183 51.9878C139.39 51.9878 138.26 50.9662 138.26 48.9959H138.254Z" fill="#1D1D1D" />
</svg>