<svg width="401" height="57" viewBox="0 0 401 57" fill="none" xmlns="http://www.w3.org/2000/svg">
    <path d="M2.24636 51.8626H0.34375V50.8835H5.21014V51.8626H3.30753V56.8978H2.24636V51.8626Z" fill="black" />
    <path d="M6.9043 50.8781H7.96011V53.3796H10.8221V50.8781H11.8725V56.8924H10.8221V54.3587H7.96011V56.8924H6.9043V50.8781Z" fill="black" />
    <path d="M14.1328 50.8781H18.5758V51.8249H15.1833V53.3904H18.1899V54.3372H15.1833V55.951H18.6187V56.8978H14.1328V50.8835V50.8781Z" fill="black" />
    <path d="M23.4546 53.9068V53.8907C23.4546 52.2069 24.7408 50.7813 26.547 50.7813C27.5921 50.7813 28.2352 51.0718 28.8516 51.599L28.1816 52.4005C27.7207 52.0078 27.2652 51.755 26.5041 51.755C25.4001 51.755 24.5586 52.7287 24.5586 53.8799V53.896C24.5586 55.1333 25.3733 56.0425 26.5952 56.0425C27.158 56.0425 27.6725 55.8595 28.0423 55.5852V54.4609H26.5095V53.541H29.0606V56.0693C28.471 56.575 27.6242 57.0054 26.5577 57.0054C24.6819 57.0054 23.4492 55.6659 23.4492 53.9122L23.4546 53.9068Z" fill="black" />
    <path d="M31.0586 54.3425V50.8781H32.1144V54.2995C32.1144 55.4184 32.6879 56.0209 33.6311 56.0209C34.5744 56.0209 35.1371 55.4561 35.1371 54.3425V50.8781H36.193V54.2887C36.193 56.0855 35.18 56.9892 33.6151 56.9892C32.0501 56.9892 31.064 56.0855 31.064 54.3425H31.0586Z" fill="black" />
    <path d="M38.4277 50.8781H39.4782V56.8924H38.4277V50.8781Z" fill="black" />
    <path d="M41.7676 50.8781H44.0025C45.8836 50.8781 47.186 52.1746 47.186 53.8691V53.8853C47.186 55.5798 45.8836 56.8924 44.0025 56.8924H41.7676V50.8781ZM44.0025 55.9295C45.2619 55.9295 46.0819 55.0795 46.0819 53.9014V53.8853C46.0819 52.7072 45.2619 51.8411 44.0025 51.8411H42.8234V55.9295H44.0025Z" fill="black" />
    <path d="M49.1367 50.8781H53.5797V51.8249H50.1872V53.3904H53.1938V54.3372H50.1872V55.951H53.6226V56.8978H49.1367V50.8835V50.8781Z" fill="black" />
    <path d="M60.1936 51.8626H58.291V50.8835H63.152V51.8626H61.2494V56.8978H60.1883V51.8626H60.1936Z" fill="black" />
    <path d="M64.4062 53.9068V53.8907C64.4062 52.1961 65.7086 50.7813 67.5469 50.7813C69.3852 50.7813 70.6715 52.18 70.6715 53.8745V53.8907C70.6715 55.5852 69.3691 57 67.5308 57C65.6925 57 64.4062 55.6013 64.4062 53.9068ZM69.5674 53.9068V53.8907C69.5674 52.7233 68.7206 51.7496 67.5308 51.7496C66.341 51.7496 65.5103 52.7018 65.5103 53.8745V53.8907C65.5103 55.058 66.3571 56.0317 67.5469 56.0317C68.7367 56.0317 69.5674 55.0795 69.5674 53.9068Z" fill="black" />
    <path d="M75.3438 50.8781H76.48L77.9109 55.3377L79.3848 50.862H80.2745L81.7483 55.3377L83.1793 50.8781H84.2833L82.1931 56.9354H81.2874L79.8135 52.6103L78.3397 56.9354H77.4339L75.3438 50.8781Z" fill="black" />
    <path d="M87.4025 50.8351H88.3779L91.0148 56.8924H89.9L89.2944 55.44H86.4592L85.8429 56.8924H84.7656L87.4025 50.8351ZM88.9085 54.5039L87.8741 52.0993L86.8451 54.5039H88.9085Z" fill="black" />
    <path d="M92.1348 56.0209L92.7672 55.2624C93.3406 55.7627 93.9141 56.0424 94.6591 56.0424C95.3076 56.0424 95.7202 55.7412 95.7202 55.2839V55.2678C95.7202 54.8374 95.4791 54.6061 94.3697 54.3479C93.0941 54.0359 92.3759 53.6593 92.3759 52.5512V52.535C92.3759 51.5022 93.2334 50.7921 94.4232 50.7921C95.2968 50.7921 95.9882 51.061 96.5992 51.5506L96.0365 52.3521C95.4951 51.9487 94.9592 51.7335 94.4072 51.7335C93.7908 51.7335 93.4318 52.0509 93.4318 52.449V52.4651C93.4318 52.9277 93.7051 53.1375 94.852 53.4119C96.1222 53.7239 96.7761 54.1758 96.7761 55.1764V55.1925C96.7761 56.3168 95.8917 56.9892 94.6376 56.9892C93.7212 56.9892 92.8583 56.6718 92.1348 56.0263V56.0209Z" fill="black" />
    <path d="M98.7051 50.8781H99.7609V53.3796H102.623V50.8781H103.673V56.8924H102.623V54.3587H99.7609V56.8924H98.7051V50.8781Z" fill="black" />
    <path d="M105.635 53.9068V53.8907C105.635 52.1961 106.937 50.7813 108.775 50.7813C110.614 50.7813 111.9 52.18 111.9 53.8745V53.8907C111.9 55.5852 110.598 57 108.759 57C106.921 57 105.635 55.6013 105.635 53.9068ZM110.796 53.9068V53.8907C110.796 52.7233 109.949 51.7496 108.759 51.7496C107.57 51.7496 106.739 52.7018 106.739 53.8745V53.8907C106.739 55.058 107.586 56.0317 108.775 56.0317C109.965 56.0317 110.796 55.0795 110.796 53.9068Z" fill="black" />
    <path d="M113.867 50.8781H114.923V53.9014L117.774 50.8781H119.066L116.574 53.4657L119.178 56.8924H117.903L115.856 54.1865L114.923 55.1495V56.8924H113.867V50.8781Z" fill="black" />
    <path d="M120.658 54.3425V50.8781H121.714V54.2995C121.714 55.4184 122.287 56.0209 123.231 56.0209C124.174 56.0209 124.737 55.4561 124.737 54.3425V50.8781H125.793V54.2887C125.793 56.0855 124.78 56.9892 123.215 56.9892C121.65 56.9892 120.664 56.0855 120.664 54.3425H120.658Z" fill="black" />
    <path d="M270.979 36.203C269.801 36.0452 268.676 35.5824 267.717 34.8251C266.143 33.584 265.238 31.7328 265.238 29.7502V14.6568H261.602V29.7449C261.602 32.8162 262.999 35.6824 265.436 37.6071C267.048 38.8798 268.976 39.6266 270.979 39.8002V36.203Z" fill="black" />
    <path d="M61.8118 30.8756L60.4409 16.6763H56.7832L58.1595 30.8756H61.8118Z" fill="black" />
    <path d="M208.192 32.1115L198.264 36.0452L199.511 39.0849L208.192 35.6455V32.1115Z" fill="#EF341B" />
    <path d="M16.6809 15.3984H2.35547V18.9692H16.6809V15.3984Z" fill="black" />
    <path d="M11.3316 11.5172H7.69531V22.8504H11.3316V11.5172Z" fill="black" />
    <path d="M149.782 22.4875H135.457V25.7639H149.782V22.4875Z" fill="#EF341B" />
    <path d="M197.171 23.7286H184.195V27.005H197.171V23.7286Z" fill="#EF341B" />
    <path d="M144.288 15.4825H140.951V25.138H144.288V15.4825Z" fill="#EF341B" />
    <path d="M7.3689 39.9264C3.30958 39.9264 0 36.6816 0 32.69C0 28.6984 3.30422 25.4536 7.3689 25.4536C11.4336 25.4536 14.7378 28.6984 14.7378 32.69C14.7378 36.6816 11.4336 39.9264 7.3689 39.9264ZM7.3689 29.0297C5.31246 29.0297 3.64161 30.6705 3.64161 32.69C3.64161 34.7094 5.31246 36.3502 7.3689 36.3502C9.42534 36.3502 11.0962 34.7094 11.0962 32.69C11.0962 30.6705 9.42534 29.0297 7.3689 29.0297Z" fill="black" />
    <path d="M19.7399 39.9264H18.1226V36.3555H19.7399C21.7963 36.3555 23.4672 34.7147 23.4672 32.6952C23.4672 30.6758 21.7963 29.035 19.7399 29.035H7.36914V25.4641H19.7453C23.8046 25.4641 27.1142 28.7089 27.1142 32.7005C27.1142 36.6921 23.8099 39.9369 19.7453 39.9369" fill="black" />
    <path d="M293.015 15.3984H278.689V18.9692H293.015V15.3984Z" fill="black" />
    <path d="M287.671 11.5172H284.035V22.8504H287.671V11.5172Z" fill="black" />
    <path d="M315.085 15.3984H300.76V18.9692H315.085V15.3984Z" fill="black" />
    <path d="M283.703 39.9264C279.638 39.9264 276.334 36.6816 276.334 32.69C276.334 28.6984 279.638 25.4536 283.703 25.4536C287.768 25.4536 291.072 28.6984 291.072 32.69C291.072 36.6816 287.768 39.9264 283.703 39.9264ZM283.703 29.0297C281.646 29.0297 279.976 30.6705 279.976 32.69C279.976 34.7094 281.646 36.3502 283.703 36.3502C285.759 36.3502 287.43 34.7094 287.43 32.69C287.43 30.6705 285.759 29.0297 283.703 29.0297Z" fill="black" />
    <path d="M293.016 25.4588H283.703V29.0297H293.016V25.4588Z" fill="black" />
    <path d="M326.255 15.5982H322.619V22.8504H326.255V15.5982Z" fill="black" />
    <path d="M322.287 39.9264C318.222 39.9264 314.918 36.6816 314.918 32.69C314.918 28.6984 318.222 25.4536 322.287 25.4536C326.352 25.4536 329.656 28.6984 329.656 32.69C329.656 36.6816 326.352 39.9264 322.287 39.9264ZM322.287 29.0297C320.23 29.0297 318.56 30.6705 318.56 32.69C318.56 34.7094 320.23 36.3502 322.287 36.3502C324.343 36.3502 326.014 34.7094 326.014 32.69C326.014 30.6705 324.343 29.0297 322.287 29.0297Z" fill="black" />
    <path d="M331.6 25.4588H322.287V29.0297H331.6V25.4588Z" fill="black" />
    <path d="M227.419 39.9264C222.481 39.9264 218.465 35.9821 218.465 31.1333C218.465 26.2845 222.481 22.3403 227.419 22.3403C232.357 22.3403 236.373 26.2845 236.373 31.1333C236.373 35.9821 232.357 39.9264 227.419 39.9264ZM227.419 25.9111C224.49 25.9111 222.101 28.2514 222.101 31.1333C222.101 34.0153 224.484 36.3555 227.419 36.3555C230.354 36.3555 232.737 34.0153 232.737 31.1333C232.737 28.2514 230.354 25.9111 227.419 25.9111Z" fill="black" />
    <path d="M243.334 39.9264H241.251V36.3555H243.334C246.263 36.3555 248.652 34.0153 248.652 31.1333C248.652 28.2514 246.269 25.9111 243.334 25.9111H227.418V22.3403H243.334C248.272 22.3403 252.288 26.2845 252.288 31.1333C252.288 35.9821 248.272 39.9264 243.334 39.9264Z" fill="black" />
    <path d="M46.3068 35.1617C45.1287 35.0039 44.004 34.5411 43.0454 33.7838C41.471 32.5427 40.5659 30.6916 40.5659 28.7037V14.6568H36.9297V28.7089C36.9297 31.7802 38.3274 34.6463 40.7641 36.5711C42.376 37.8438 44.3039 38.5906 46.3068 38.7589V35.1617Z" fill="black" />
    <path d="M124.581 30.8756L123.205 16.6763H119.553L120.924 30.8756H124.581Z" fill="black" />
    <path d="M109.076 35.1617C107.898 35.0039 106.774 34.5411 105.815 33.7838C104.241 32.5427 103.335 30.6916 103.335 28.7037V14.6568H99.6992V28.7089C99.6992 31.7802 101.097 34.6463 103.534 36.5711C105.146 37.8438 107.073 38.5906 109.076 38.7589V35.1617Z" fill="black" />
    <path d="M87.437 32.3744C86.3392 34.72 83.9239 36.3503 81.1231 36.3503C77.2941 36.3503 74.1773 33.2895 74.1773 29.5293V13.6313H70.541V29.5293C70.541 35.2616 75.2912 39.9264 81.1285 39.9264C85.9589 39.9264 90.045 36.7289 91.3089 32.3797H87.4424L87.437 32.3744Z" fill="black" />
    <path d="M361.441 32.3744C360.343 34.72 357.928 36.3503 355.127 36.3503C351.298 36.3503 348.181 33.2895 348.181 29.5293V13.6313H344.545V29.5293C344.545 35.2616 349.295 39.9264 355.132 39.9264C359.963 39.9264 364.049 36.7289 365.313 32.3797H361.446L361.441 32.3744Z" fill="black" />
    <path d="M144.288 25.3589H140.951V40.0053H144.288V25.3589Z" fill="#EF341B" />
    <path d="M162.084 39.8896C158.127 39.8896 154.908 36.7289 154.908 32.8425V18.6642C154.908 14.7778 158.127 11.6171 162.084 11.6171C166.042 11.6171 169.26 14.7778 169.26 18.6642V32.8425C169.26 36.7289 166.042 39.8896 162.084 39.8896ZM162.084 14.8882C159.964 14.8882 158.239 16.5816 158.239 18.6642V32.8425C158.239 34.9251 159.964 36.6185 162.084 36.6185C164.205 36.6185 165.929 34.9251 165.929 32.8425V18.6642C165.929 16.5816 164.205 14.8882 162.084 14.8882Z" fill="#EF341B" />
    <path d="M189.925 39.8738H188.41C184.688 39.8738 181.662 36.9024 181.662 33.2474V18.2487L198.746 18.2856C202.719 18.2856 205.959 21.462 205.959 25.3694C205.959 29.2769 202.725 32.4533 198.746 32.4533H188.308V29.177H198.746C200.882 29.177 202.628 27.4678 202.628 25.3642C202.628 23.2606 200.888 21.5514 198.746 21.5514L184.998 21.5251V33.2422C184.998 35.0881 186.53 36.5922 188.41 36.5922H189.925V39.8685V39.8738Z" fill="#EF341B" />
    <path d="M307.679 28.3723L309.302 11.5803H305.649L304.021 28.3723H307.679Z" fill="black" />
    <path d="M24.2441 11.5014L24.769 16.9077H28.4213L27.8965 11.5014H24.2441Z" fill="black" />
    <path d="M151.315 37.4336L150.501 28.9876H147.148L147.968 37.4336H151.315Z" fill="#EF341B" />
    <path d="M137.38 37.4336L138.2 28.9876H134.847L134.033 37.4336H137.38Z" fill="#EF341B" />
    <path d="M203.105 39.8738L197.573 29.4557L194.617 30.9703L199.346 39.8738H203.105Z" fill="#EF341B" />
    <path d="M189.867 14.2466L190.451 20.2998H194.109L193.519 14.2466H189.867Z" fill="#EF341B" />
    <path d="M192.663 11.3226L177.133 13.9732V17.5966L192.663 14.9461L208.194 17.6229V13.9942L192.663 11.3226Z" fill="#EF341B" />
    <path d="M330.439 11.5014L330.964 16.9077H334.617L334.097 11.5014H330.439Z" fill="black" />
    <path d="M135.457 14.1415V17.4652L149.782 14.9987V11.675L135.457 14.1415Z" fill="#EF341B" />
    <path d="M383.702 34.3939C383.702 37.381 381.238 39.8002 378.197 39.8002C375.155 39.8002 372.691 37.381 372.691 34.3939C372.691 31.4068 375.155 28.9876 378.197 28.9876C381.238 28.9876 383.702 31.4068 383.702 34.3939Z" fill="#EF341B" />
    <path d="M377.65 25.0381L393.266 0L394.734 0.909808L378.438 25.522L377.65 25.0381Z" fill="#E4310E" />
    <path d="M379.547 26.6369L399.742 4.98553L401 6.15303L380.222 27.2574L379.547 26.6369Z" fill="#E4310E" />
</svg>