<svg width="120" height="60" viewBox="0 0 120 60" fill="none" xmlns="http://www.w3.org/2000/svg">
    <path d="M0 58.9604H20.3259V45.6931H10.6962V0.940594H0V58.9604Z" fill="currentColor" />
    <path d="M34.2439 36.5347V24.1089C34.2439 18.1353 34.5132 14.0264 35.0518 11.7822C35.6119 9.50495 36.5814 8.36634 37.9601 8.36634C39.3389 8.36634 40.3299 9.52145 40.9331 11.8317C41.5363 14.1419 41.8379 17.6568 41.8379 22.3762V34.3069C41.8379 39.1584 41.6979 42.8053 41.4178 45.2475C41.1593 47.6568 40.7715 49.2574 40.2545 50.0495C39.7374 50.8086 38.9727 51.1881 37.9601 51.1881C36.5814 51.1881 35.6119 50.1155 35.0518 47.9703C34.5132 45.8251 34.2439 42.0132 34.2439 36.5347ZM37.2815 60C39.9098 60 42.1826 59.5545 44.0999 58.6634C46.0388 57.7393 47.6222 56.4851 48.8502 54.901C50.0781 53.2838 51.0583 51.2046 51.7908 48.6634C52.5233 46.0891 53.0295 43.3333 53.3096 40.396C53.5897 37.4587 53.7297 34.0099 53.7297 30.0495C53.7297 27.3762 53.6758 24.9835 53.5681 22.8713C53.4604 20.7591 53.2665 18.6304 52.9865 16.4852C52.7064 14.3399 52.3294 12.4752 51.8554 10.8911C51.403 9.27393 50.7891 7.75577 50.0135 6.33663C49.2595 4.91749 48.3655 3.76238 47.3314 2.87129C46.2973 1.9802 45.0586 1.28713 43.6152 0.792081C42.1718 0.264028 40.5453 0 38.7357 0C36.1074 0 33.8239 0.462048 31.885 1.38614C29.9676 2.31023 28.395 3.58086 27.167 5.19802C25.9606 6.81518 24.9912 8.92739 24.2587 11.5346C23.5263 14.1089 23.02 16.8647 22.7399 19.802C22.4814 22.7393 22.3522 26.1881 22.3522 30.1485C22.3522 32.8218 22.406 35.231 22.5137 37.3762C22.6214 39.4884 22.8153 41.6172 23.0954 43.7624C23.3754 45.8746 23.7417 47.7228 24.1941 49.3069C24.668 50.8911 25.282 52.3762 26.036 53.7624C26.8116 55.1485 27.7164 56.2871 28.7505 57.1782C29.7845 58.0693 31.0125 58.7624 32.4343 59.2574C33.8777 59.7525 35.4934 60 37.2815 60Z" fill="currentColor" />
    <path d="M80.1598 53.7129L80.5476 58.9604H86.2996L86.3319 24.901H71.9519V35L76.2174 36.4851V41.5347C76.2174 43.3168 76.1097 44.7855 75.8943 45.9406C75.6788 47.0627 75.3449 47.9208 74.8925 48.5149C74.4401 49.0759 73.9554 49.4719 73.4384 49.703C72.9213 49.901 72.2858 50 71.5318 50C70.0022 50 68.9789 48.2673 68.4619 44.802C67.9664 41.3366 67.7187 36.0231 67.7187 28.8614C67.7187 25.429 67.8156 22.5248 68.0095 20.1485C68.2034 17.7393 68.4511 15.8416 68.7527 14.4554C69.0759 13.0363 69.5067 11.9637 70.0453 11.2376C70.6054 10.4785 71.1656 9.9835 71.7257 9.75247C72.2858 9.52145 72.9967 9.40594 73.8584 9.40594C74.9141 9.40594 75.6788 9.60396 76.1528 10L77.9947 16.5842H83.876L84.3607 5.19802C84.3176 5.13201 84.253 5.033 84.1668 4.90099C84.1022 4.76898 83.9191 4.52145 83.6175 4.15842C83.3159 3.79538 82.982 3.46535 82.6157 3.16832C82.271 2.83828 81.7863 2.47525 81.1616 2.07921C80.5584 1.65017 79.9121 1.30363 79.2227 1.03961C78.5333 0.742574 77.6931 0.495049 76.7021 0.297032C75.7327 0.0990116 74.7094 0 73.6322 0C71.241 0 69.1082 0.330033 67.2339 0.990098C65.3597 1.61716 63.7655 2.57426 62.4514 3.86139C61.1372 5.14851 60.0278 6.66666 59.123 8.41584C58.2181 10.132 57.5072 12.1782 56.9902 14.5545C56.4732 16.9307 56.0962 19.4224 55.8592 22.0297C55.6437 24.637 55.536 27.5743 55.536 30.8416C55.536 35.231 55.7945 39.1419 56.3116 42.5743C56.8502 46.0066 57.6903 49.0594 58.8321 51.7327C59.9739 54.4059 61.5142 56.4521 63.4531 57.8713C65.4135 59.2904 67.7294 60 70.4008 60C74.1708 60 77.4238 57.9043 80.1598 53.7129Z" fill="currentColor" />
    <path d="M100.514 36.5347V24.1089C100.514 18.1353 100.784 14.0264 101.322 11.7822C101.882 9.50495 102.852 8.36634 104.23 8.36634C105.609 8.36634 106.6 9.52145 107.203 11.8317C107.807 14.1419 108.108 17.6568 108.108 22.3762V34.3069C108.108 39.1584 107.968 42.8053 107.688 45.2475C107.43 47.6568 107.042 49.2574 106.525 50.0495C106.008 50.8086 105.243 51.1881 104.23 51.1881C102.852 51.1881 101.882 50.1155 101.322 47.9703C100.784 45.8251 100.514 42.0132 100.514 36.5347ZM103.552 60C106.18 60 108.453 59.5545 110.37 58.6634C112.309 57.7393 113.893 56.4851 115.12 54.901C116.348 53.2838 117.329 51.2046 118.061 48.6634C118.794 46.0891 119.3 43.3333 119.58 40.396C119.86 37.4587 120 34.0099 120 30.0495C120 27.3762 119.946 24.9835 119.838 22.8713C119.731 20.7591 119.537 18.6304 119.257 16.4852C118.977 14.3399 118.6 12.4752 118.126 10.8911C117.673 9.27393 117.059 7.75577 116.284 6.33663C115.53 4.91749 114.636 3.76238 113.602 2.87129C112.568 1.9802 111.329 1.28713 109.886 0.792081C108.442 0.264028 106.816 0 105.006 0C102.378 0 100.094 0.462048 98.1553 1.38614C96.2379 2.31023 94.6653 3.58086 93.4373 5.19802C92.2309 6.81518 91.2615 8.92739 90.529 11.5346C89.7966 14.1089 89.2903 16.8647 89.0102 19.802C88.7517 22.7393 88.6225 26.1881 88.6225 30.1485C88.6225 32.8218 88.6763 35.231 88.784 37.3762C88.8917 39.4884 89.0856 41.6172 89.3657 43.7624C89.6458 45.8746 90.012 47.7228 90.4644 49.3069C90.9383 50.8911 91.5523 52.3762 92.3063 53.7624C93.0819 55.1485 93.9867 56.2871 95.0208 57.1782C96.0548 58.0693 97.2828 58.7624 98.7046 59.2574C100.148 59.7525 101.764 60 103.552 60Z" fill="currentColor" />
</svg>