<svg width="417" height="404" viewBox="0 0 417 404" fill="none" xmlns="http://www.w3.org/2000/svg">
    <path d="M337.759 91.3739C336.975 71.9547 327.282 37.8624 307.43 22.5176C255.164 -17.8739 196.152 1.12131 167.889 39.7608C160.011 50.5359 146.958 56.2986 133.751 54.4039C128.343 53.6273 122.82 53.2221 117.199 53.2146C53.8896 53.1208 1.64641 104.014 0.0377197 167.332C-1.37598 222.907 37.1014 269.654 89.7046 282.992C107.982 287.625 123.168 300.276 131.167 317.362C155.47 369.275 208.748 405.495 270.175 403.953C351.217 401.919 417.5 334.631 416.997 253.525C416.701 206.028 394.652 161.449 359.857 134.275C346.59 123.913 338.437 108.201 337.759 91.3739Z" fill="black" />
</svg>