<svg width="900" height="528" viewBox="0 0 900 528" fill="none" xmlns="http://www.w3.org/2000/svg">
    <path d="M758.049 146.872C733.02 140.393 712.178 124.426 699.748 103.246C663.645 41.7444 593.377 -3.39767e-07 512.59 -2.93508e-07C460.982 -2.63958e-07 413.666 17.0343 376.803 45.377C347.918 67.5832 308.785 74.9785 273.087 64.279C252.518 58.1151 230.555 54.8246 207.752 54.934C91.7094 55.495 -2.00228 144.532 0.0325216 252.197C1.71345 341.227 68.1027 415.604 157.413 436.599C170.425 439.657 182.044 446.471 190.501 456.137C228.793 499.893 287.22 527.859 352.695 527.859C392.087 527.859 428.927 517.741 460.37 500.146C512.649 470.893 576.87 466.823 633.543 487.894C654.481 495.679 677.225 500.18 701.023 500.707C812.266 503.177 903.516 417.738 899.896 314.54C897.087 234.438 837.945 167.552 758.042 146.872L758.049 146.872Z" fill="#FFF3DC" />
</svg>