<svg width="598" height="458" viewBox="0 0 598 458" fill="none" xmlns="http://www.w3.org/2000/svg">
    <path d="M595.5 216.46C611.73 114.41 542.26 18.55 440.34 2.34C369.46 -8.93 301.56 21.29 261.31 75.07C232.84 99.81 192.18 89.23 192.18 89.23C182.72 85.46 172.69 82.67 162.22 81C85.7699 68.85 13.9299 121.05 1.75992 197.59C-10.4101 274.13 41.6899 346.03 118.14 358.19C123.78 359.09 129.39 359.63 134.96 359.84L132.99 360.55C132.99 360.55 194.3 359.76 226.27 407.03C243.63 432.32 270.91 450.71 303.58 455.9C355.5 464.16 404.85 436.51 426.39 391.29C426.59 390.88 426.78 390.47 426.97 390.05C428.85 386.31 435.46 375.08 448.93 370.34C522.74 354.96 582.94 295.43 595.49 216.46H595.5Z" fill="black" />
</svg>